<?xml version="1.0" encoding="UTF-8"?>
<svg xmlns="http://www.w3.org/2000/svg" xmlns:xlink="http://www.w3.org/1999/xlink" viewBox="0 0 816.51 665.7">
  <defs>
    <style>
      .cls-1 {
        fill: url(#_Г‚ГЃ_ГЏ_ГЊГЊ_Г€_Г‹Г‚ГЊГљ_103-5);
      }

      .cls-1, .cls-2, .cls-3, .cls-4, .cls-5, .cls-6, .cls-7, .cls-8, .cls-9, .cls-10, .cls-11, .cls-12, .cls-13, .cls-14, .cls-15, .cls-16, .cls-17, .cls-18, .cls-19, .cls-20, .cls-21, .cls-22, .cls-23, .cls-24, .cls-25, .cls-26, .cls-27, .cls-28, .cls-29, .cls-30, .cls-31, .cls-32, .cls-33, .cls-34, .cls-35, .cls-36, .cls-37, .cls-38, .cls-39, .cls-40, .cls-41, .cls-42, .cls-43, .cls-44, .cls-45, .cls-46, .cls-47, .cls-48, .cls-49, .cls-50, .cls-51, .cls-52, .cls-53, .cls-54, .cls-55, .cls-56, .cls-57, .cls-58, .cls-59, .cls-60, .cls-61, .cls-62, .cls-63, .cls-64, .cls-65, .cls-66, .cls-67, .cls-68, .cls-69, .cls-70 {
        fill-rule: evenodd;
      }

      .cls-1, .cls-2, .cls-3, .cls-4, .cls-5, .cls-6, .cls-7, .cls-8, .cls-9, .cls-56, .cls-57, .cls-71 {
        mix-blend-mode: screen;
      }

      .cls-1, .cls-2, .cls-3, .cls-8, .cls-9, .cls-56 {
        opacity: .4;
      }

      .cls-2 {
        fill: url(#_Г‚ГЃ_ГЏ_ГЊГЊ_Г€_Г‹Г‚ГЊГљ_103-8);
      }

      .cls-3 {
        fill: url(#_Г‚ГЃ_ГЏ_ГЊГЊ_Г€_Г‹Г‚ГЊГљ_103-4);
      }

      .cls-4 {
        fill: url(#_Г‚ГЃ_ГЏ_ГЊГЊ_Г€_Г‹Г‚ГЊГљ_103-2);
      }

      .cls-4, .cls-5, .cls-6, .cls-7, .cls-72, .cls-57, .cls-71 {
        opacity: .3;
      }

      .cls-5 {
        fill: url(#_Г‚ГЃ_ГЏ_ГЊГЊ_Г€_Г‹Г‚ГЊГљ_103-3);
      }

      .cls-6 {
        fill: url(#_Г‚ГЃ_ГЏ_ГЊГЊ_Г€_Г‹Г‚ГЊГљ_103-9);
      }

      .cls-7 {
        fill: url(#_Г‚ГЃ_ГЏ_ГЊГЊ_Г€_Г‹Г‚ГЊГљ_103-7);
      }

      .cls-8 {
        fill: url(#_Г‚ГЃ_ГЏ_ГЊГЊ_Г€_Г‹Г‚ГЊГљ_143-3);
      }

      .cls-9 {
        fill: url(#_Г‚ГЃ_ГЏ_ГЊГЊ_Г€_Г‹Г‚ГЊГљ_143-2);
      }

      .cls-73 {
        fill: url(#_Г‚ГЃ_ГЏ_ГЊГЊ_Г€_Г‹Г‚ГЊГљ_185);
      }

      .cls-72 {
        fill: #f1d4e6;
        mix-blend-mode: soft-light;
      }

      .cls-10 {
        fill: url(#_Г‚ГЃ_ГЏ_ГЊГЊ_Г€_Г‹Г‚ГЊГљ_4-11);
      }

      .cls-10, .cls-11, .cls-12, .cls-13, .cls-14, .cls-15, .cls-16, .cls-17, .cls-18, .cls-19, .cls-20, .cls-21, .cls-22, .cls-23, .cls-24, .cls-25, .cls-26, .cls-27, .cls-28, .cls-29, .cls-30, .cls-31, .cls-32, .cls-33, .cls-41, .cls-42, .cls-43, .cls-44, .cls-45, .cls-46, .cls-47, .cls-48, .cls-49, .cls-50, .cls-51, .cls-52, .cls-53, .cls-54, .cls-55, .cls-74, .cls-69, .cls-70 {
        mix-blend-mode: multiply;
      }

      .cls-10, .cls-11, .cls-12, .cls-13, .cls-14, .cls-15, .cls-16, .cls-17, .cls-18, .cls-19, .cls-20, .cls-21, .cls-22, .cls-24, .cls-25, .cls-26, .cls-27, .cls-28, .cls-29, .cls-30, .cls-31, .cls-32, .cls-33, .cls-45, .cls-46, .cls-47, .cls-48, .cls-49, .cls-50, .cls-51, .cls-52, .cls-53, .cls-54, .cls-55, .cls-74, .cls-69, .cls-70 {
        opacity: .5;
      }

      .cls-11 {
        fill: url(#_Г‚ГЃ_ГЏ_ГЊГЊ_Г€_Г‹Г‚ГЊГљ_4-21);
      }

      .cls-12 {
        fill: url(#_Г‚ГЃ_ГЏ_ГЊГЊ_Г€_Г‹Г‚ГЊГљ_4-20);
      }

      .cls-13 {
        fill: url(#_Г‚ГЃ_ГЏ_ГЊГЊ_Г€_Г‹Г‚ГЊГљ_4-22);
      }

      .cls-14 {
        fill: url(#_Г‚ГЃ_ГЏ_ГЊГЊ_Г€_Г‹Г‚ГЊГљ_4-18);
      }

      .cls-15 {
        fill: url(#_Г‚ГЃ_ГЏ_ГЊГЊ_Г€_Г‹Г‚ГЊГљ_4-13);
      }

      .cls-16 {
        fill: url(#_Г‚ГЃ_ГЏ_ГЊГЊ_Г€_Г‹Г‚ГЊГљ_4-15);
      }

      .cls-17 {
        fill: url(#_Г‚ГЃ_ГЏ_ГЊГЊ_Г€_Г‹Г‚ГЊГљ_4-16);
      }

      .cls-18 {
        fill: url(#_Г‚ГЃ_ГЏ_ГЊГЊ_Г€_Г‹Г‚ГЊГљ_4-19);
      }

      .cls-19 {
        fill: url(#_Г‚ГЃ_ГЏ_ГЊГЊ_Г€_Г‹Г‚ГЊГљ_4-14);
      }

      .cls-20 {
        fill: url(#_Г‚ГЃ_ГЏ_ГЊГЊ_Г€_Г‹Г‚ГЊГљ_4-10);
      }

      .cls-21 {
        fill: url(#_Г‚ГЃ_ГЏ_ГЊГЊ_Г€_Г‹Г‚ГЊГљ_4-12);
      }

      .cls-75 {
        isolation: isolate;
      }

      .cls-22 {
        fill: url(#_Г‚ГЃ_ГЏ_ГЊГЊ_Г€_Г‹Г‚ГЊГљ_4);
      }

      .cls-23 {
        fill: url(#_Г‚ГЃ_ГЏ_ГЊГЊ_Г€_Г‹Г‚ГЊГљ_8);
      }

      .cls-23, .cls-41, .cls-42, .cls-43, .cls-44 {
        opacity: .65;
      }

      .cls-24 {
        fill: url(#_Г‚ГЃ_ГЏ_ГЊГЊ_Г€_Г‹Г‚ГЊГљ_122-2);
      }

      .cls-25 {
        fill: url(#_Г‚ГЃ_ГЏ_ГЊГЊ_Г€_Г‹Г‚ГЊГљ_109-2);
      }

      .cls-26 {
        fill: url(#_Г‚ГЃ_ГЏ_ГЊГЊ_Г€_Г‹Г‚ГЊГљ_120-3);
      }

      .cls-27 {
        fill: url(#_Г‚ГЃ_ГЏ_ГЊГЊ_Г€_Г‹Г‚ГЊГљ_120-2);
      }

      .cls-28 {
        fill: url(#_Г‚ГЃ_ГЏ_ГЊГЊ_Г€_Г‹Г‚ГЊГљ_120-8);
      }

      .cls-29 {
        fill: url(#_Г‚ГЃ_ГЏ_ГЊГЊ_Г€_Г‹Г‚ГЊГљ_120-9);
      }

      .cls-30 {
        fill: url(#_Г‚ГЃ_ГЏ_ГЊГЊ_Г€_Г‹Г‚ГЊГљ_120-7);
      }

      .cls-31 {
        fill: url(#_Г‚ГЃ_ГЏ_ГЊГЊ_Г€_Г‹Г‚ГЊГљ_120-5);
      }

      .cls-32 {
        fill: url(#_Г‚ГЃ_ГЏ_ГЊГЊ_Г€_Г‹Г‚ГЊГљ_120-6);
      }

      .cls-33 {
        fill: url(#_Г‚ГЃ_ГЏ_ГЊГЊ_Г€_Г‹Г‚ГЊГљ_120-4);
      }

      .cls-34 {
        fill: url(#_Г‚ГЃ_ГЏ_ГЊГЊ_Г€_Г‹Г‚ГЊГљ_65);
      }

      .cls-35 {
        fill: url(#_Г‚ГЃ_ГЏ_ГЊГЊ_Г€_Г‹Г‚ГЊГљ_93);
      }

      .cls-36 {
        fill: url(#_Г‚ГЃ_ГЏ_ГЊГЊ_Г€_Г‹Г‚ГЊГљ_73);
      }

      .cls-37 {
        fill: url(#_Г‚ГЃ_ГЏ_ГЊГЊ_Г€_Г‹Г‚ГЊГљ_49);
      }

      .cls-76 {
        fill: #fff;
      }

      .cls-38 {
        fill: url(#_Г‚ГЃ_ГЏ_ГЊГЊ_Г€_Г‹Г‚ГЊГљ_133);
      }

      .cls-39 {
        fill: url(#_Г‚ГЃ_ГЏ_ГЊГЊ_Г€_Г‹Г‚ГЊГљ_142);
      }

      .cls-40 {
        fill: url(#_Г‚ГЃ_ГЏ_ГЊГЊ_Г€_Г‹Г‚ГЊГљ_128);
      }

      .cls-77 {
        fill: url(#_Г‚ГЃ_ГЏ_ГЊГЊ_Г€_Г‹Г‚ГЊГљ_423);
        mix-blend-mode: color;
        opacity: .2;
      }

      .cls-41 {
        fill: url(#_Г‚ГЃ_ГЏ_ГЊГЊ_Г€_Г‹Г‚ГЊГљ_8-2);
      }

      .cls-42 {
        fill: url(#_Г‚ГЃ_ГЏ_ГЊГЊ_Г€_Г‹Г‚ГЊГљ_8-3);
      }

      .cls-43 {
        fill: url(#_Г‚ГЃ_ГЏ_ГЊГЊ_Г€_Г‹Г‚ГЊГљ_8-5);
      }

      .cls-44 {
        fill: url(#_Г‚ГЃ_ГЏ_ГЊГЊ_Г€_Г‹Г‚ГЊГљ_8-4);
      }

      .cls-45 {
        fill: url(#_Г‚ГЃ_ГЏ_ГЊГЊ_Г€_Г‹Г‚ГЊГљ_4-3);
      }

      .cls-46 {
        fill: url(#_Г‚ГЃ_ГЏ_ГЊГЊ_Г€_Г‹Г‚ГЊГљ_4-5);
      }

      .cls-47 {
        fill: url(#_Г‚ГЃ_ГЏ_ГЊГЊ_Г€_Г‹Г‚ГЊГљ_4-2);
      }

      .cls-48 {
        fill: url(#_Г‚ГЃ_ГЏ_ГЊГЊ_Г€_Г‹Г‚ГЊГљ_4-4);
      }

      .cls-49 {
        fill: url(#_Г‚ГЃ_ГЏ_ГЊГЊ_Г€_Г‹Г‚ГЊГљ_4-8);
      }

      .cls-50 {
        fill: url(#_Г‚ГЃ_ГЏ_ГЊГЊ_Г€_Г‹Г‚ГЊГљ_4-9);
      }

      .cls-51 {
        fill: url(#_Г‚ГЃ_ГЏ_ГЊГЊ_Г€_Г‹Г‚ГЊГљ_4-7);
      }

      .cls-52 {
        fill: url(#_Г‚ГЃ_ГЏ_ГЊГЊ_Г€_Г‹Г‚ГЊГљ_4-6);
      }

      .cls-53 {
        fill: url(#_Г‚ГЃ_ГЏ_ГЊГЊ_Г€_Г‹Г‚ГЊГљ_122);
      }

      .cls-54 {
        fill: url(#_Г‚ГЃ_ГЏ_ГЊГЊ_Г€_Г‹Г‚ГЊГљ_120);
      }

      .cls-55 {
        fill: url(#_Г‚ГЃ_ГЏ_ГЊГЊ_Г€_Г‹Г‚ГЊГљ_109);
      }

      .cls-78 {
        fill: #4b1a46;
      }

      .cls-56 {
        fill: url(#_Г‚ГЃ_ГЏ_ГЊГЊ_Г€_Г‹Г‚ГЊГљ_143);
      }

      .cls-57 {
        fill: url(#_Г‚ГЃ_ГЏ_ГЊГЊ_Г€_Г‹Г‚ГЊГљ_103);
      }

      .cls-58 {
        fill: url(#_Г‚ГЃ_ГЏ_ГЊГЊ_Г€_Г‹Г‚ГЊГљ_49-2);
      }

      .cls-59 {
        fill: url(#_Г‚ГЃ_ГЏ_ГЊГЊ_Г€_Г‹Г‚ГЊГљ_65-2);
      }

      .cls-60 {
        fill: url(#_Г‚ГЃ_ГЏ_ГЊГЊ_Г€_Г‹Г‚ГЊГљ_93-2);
      }

      .cls-61 {
        fill: url(#_Г‚ГЃ_ГЏ_ГЊГЊ_Г€_Г‹Г‚ГЊГљ_133-4);
      }

      .cls-62 {
        fill: url(#_Г‚ГЃ_ГЏ_ГЊГЊ_Г€_Г‹Г‚ГЊГљ_133-3);
      }

      .cls-63 {
        fill: url(#_Г‚ГЃ_ГЏ_ГЊГЊ_Г€_Г‹Г‚ГЊГљ_133-2);
      }

      .cls-64 {
        fill: url(#_Г‚ГЃ_ГЏ_ГЊГЊ_Г€_Г‹Г‚ГЊГљ_133-5);
      }

      .cls-65 {
        fill: url(#_Г‚ГЃ_ГЏ_ГЊГЊ_Г€_Г‹Г‚ГЊГљ_133-6);
      }

      .cls-66 {
        fill: url(#_Г‚ГЃ_ГЏ_ГЊГЊ_Г€_Г‹Г‚ГЊГљ_142-2);
      }

      .cls-67 {
        fill: url(#_Г‚ГЃ_ГЏ_ГЊГЊ_Г€_Г‹Г‚ГЊГљ_142-3);
      }

      .cls-68 {
        fill: url(#_Г‚ГЃ_ГЏ_ГЊГЊ_Г€_Г‹Г‚ГЊГљ_142-4);
      }

      .cls-74 {
        fill: url(#_Г‚ГЃ_ГЏ_ГЊГЊ_Г€_Г‹Г‚ГЊГљ_4-17);
      }

      .cls-71 {
        fill: url(#_Г‚ГЃ_ГЏ_ГЊГЊ_Г€_Г‹Г‚ГЊГљ_103-6);
      }

      .cls-79 {
        fill: url(#_Г‚ГЃ_ГЏ_ГЊГЊ_Г€_Г‹Г‚ГЊГљ_66);
      }

      .cls-69 {
        fill: url(#_Г‚ГЃ_ГЏ_ГЊГЊ_Г€_Г‹Г‚ГЊГљ_120-11);
      }

      .cls-70 {
        fill: url(#_Г‚ГЃ_ГЏ_ГЊГЊ_Г€_Г‹Г‚ГЊГљ_120-10);
      }
    </style>
    <radialGradient id="_Г‚ГЃ_ГЏ_ГЊГЊ_Г€_Г‹Г‚ГЊГљ_65" data-name="ВЎГ‚ГЃЛљГЏЛ‡ГЊГЊЛљГ€ вЂћпЈївЂЎвЂ°Г‹Г‚ГЊГљ 65" cx="-702.84" cy="570.48" fx="-702.84" fy="570.48" r="84" gradientTransform="translate(1233.63)" gradientUnits="userSpaceOnUse">
      <stop offset="0" stop-color="#786c82"/>
      <stop offset="1" stop-color="#5a4157"/>
    </radialGradient>
    <linearGradient id="_Г‚ГЃ_ГЏ_ГЊГЊ_Г€_Г‹Г‚ГЊГљ_8" data-name="ВЎГ‚ГЃЛљГЏЛ‡ГЊГЊЛљГ€ вЂћпЈївЂЎвЂ°Г‹Г‚ГЊГљ 8" x1="-651.55" y1="576.09" x2="-651.55" y2="505.83" gradientTransform="translate(1233.63)" gradientUnits="userSpaceOnUse">
      <stop offset=".01" stop-color="#bf6889"/>
      <stop offset="1" stop-color="#857fbc"/>
    </linearGradient>
    <linearGradient id="_Г‚ГЃ_ГЏ_ГЊГЊ_Г€_Г‹Г‚ГЊГљ_8-2" data-name="ВЎГ‚ГЃЛљГЏЛ‡ГЊГЊЛљГ€ вЂћпЈївЂЎвЂ°Г‹Г‚ГЊГљ 8" x1="137.18" y1="2912.9" x2="137.18" y2="2808.85" gradientTransform="translate(1076.02 -1841.55) rotate(27.95) scale(1.2 .83) skewX(9.23)" xlink:href="#_Г‚ГЃ_ГЏ_ГЊГЊ_Г€_Г‹Г‚ГЊГљ_8"/>
    <linearGradient id="_Г‚ГЃ_ГЏ_ГЊГЊ_Г€_Г‹Г‚ГЊГљ_142" data-name="ВЎГ‚ГЃЛљГЏЛ‡ГЊГЊЛљГ€ вЂћпЈївЂЎвЂ°Г‹Г‚ГЊГљ 142" x1="82" y1="2951.9" x2="82" y2="2928.01" gradientTransform="translate(1076.02 -1841.55) rotate(27.95) scale(1.2 .83) skewX(9.23)" gradientUnits="userSpaceOnUse">
      <stop offset="0" stop-color="#fbb77e"/>
      <stop offset="1" stop-color="#f597a0"/>
    </linearGradient>
    <linearGradient id="_Г‚ГЃ_ГЏ_ГЊГЊ_Г€_Г‹Г‚ГЊГљ_133" data-name="ВЎГ‚ГЃЛљГЏЛ‡ГЊГЊЛљГ€ вЂћпЈївЂЎвЂ°Г‹Г‚ГЊГљ 133" x1="100.04" y1="2948.42" x2="100.04" y2="2927.87" gradientTransform="translate(1076.02 -1841.55) rotate(27.95) scale(1.2 .83) skewX(9.23)" gradientUnits="userSpaceOnUse">
      <stop offset="0" stop-color="#ffd891"/>
      <stop offset="1" stop-color="#f597a0"/>
    </linearGradient>
    <linearGradient id="_Г‚ГЃ_ГЏ_ГЊГЊ_Г€_Г‹Г‚ГЊГљ_4" data-name="ВЎГ‚ГЃЛљГЏЛ‡ГЊГЊЛљГ€ вЂћпЈївЂЎвЂ°Г‹Г‚ГЊГљ 4" x1="80.31" y1="2861.53" x2="89.4" y2="2861.53" gradientTransform="translate(1076.02 -1841.55) rotate(27.95) scale(1.2 .83) skewX(9.23)" gradientUnits="userSpaceOnUse">
      <stop offset=".01" stop-color="#bf6889"/>
      <stop offset="1" stop-color="#bfb8d3"/>
    </linearGradient>
    <linearGradient id="_Г‚ГЃ_ГЏ_ГЊГЊ_Г€_Г‹Г‚ГЊГљ_4-2" data-name="ВЎГ‚ГЃЛљГЏЛ‡ГЊГЊЛљГ€ вЂћпЈївЂЎвЂ°Г‹Г‚ГЊГљ 4" x1="80.08" y1="2862.66" x2="84.84" y2="2862.66" xlink:href="#_Г‚ГЃ_ГЏ_ГЊГЊ_Г€_Г‹Г‚ГЊГљ_4"/>
    <linearGradient id="_Г‚ГЃ_ГЏ_ГЊГЊ_Г€_Г‹Г‚ГЊГљ_4-3" data-name="ВЎГ‚ГЃЛљГЏЛ‡ГЊГЊЛљГ€ вЂћпЈївЂЎвЂ°Г‹Г‚ГЊГљ 4" x1="-716.63" y1="571.84" x2="-594.12" y2="571.84" gradientTransform="translate(1233.63)" xlink:href="#_Г‚ГЃ_ГЏ_ГЊГЊ_Г€_Г‹Г‚ГЊГљ_4"/>
    <radialGradient id="_Г‚ГЃ_ГЏ_ГЊГЊ_Г€_Г‹Г‚ГЊГљ_49" data-name="ВЎГ‚ГЃЛљГЏЛ‡ГЊГЊЛљГ€ вЂћпЈївЂЎвЂ°Г‹Г‚ГЊГљ 49" cx="-150.83" cy="-1231.02" fx="-150.83" fy="-1231.02" r="81.9" gradientTransform="translate(1312.74 1275.86) rotate(-20.94)" gradientUnits="userSpaceOnUse">
      <stop offset="0" stop-color="#977889"/>
      <stop offset="1" stop-color="#786c82"/>
    </radialGradient>
    <linearGradient id="_Г‚ГЃ_ГЏ_ГЊГЊ_Г€_Г‹Г‚ГЊГљ_8-3" data-name="ВЎГ‚ГЃЛљГЏЛ‡ГЊГЊЛљГ€ вЂћпЈївЂЎвЂ°Г‹Г‚ГЊГљ 8" x1="-217.05" y1="-1119.91" x2="-157.47" y2="-1119.91" gradientTransform="translate(1312.74 1275.86) rotate(-20.94)" xlink:href="#_Г‚ГЃ_ГЏ_ГЊГЊ_Г€_Г‹Г‚ГЊГљ_8"/>
    <radialGradient id="_Г‚ГЃ_ГЏ_ГЊГЊ_Г€_Г‹Г‚ГЊГљ_65-2" data-name="ВЎГ‚ГЃЛљГЏЛ‡ГЊГЊЛљГ€ вЂћпЈївЂЎвЂ°Г‹Г‚ГЊГљ 65" cx="-993.8" cy="1181.86" fx="-993.8" fy="1181.86" r="92.82" gradientTransform="translate(1359.6 -505.66) rotate(9.98)" xlink:href="#_Г‚ГЃ_ГЏ_ГЊГЊ_Г€_Г‹Г‚ГЊГљ_65"/>
    <linearGradient id="_Г‚ГЃ_ГЏ_ГЊГЊ_Г€_Г‹Г‚ГЊГљ_8-4" data-name="ВЎГ‚ГЃЛљГЏЛ‡ГЊГЊЛљГ€ вЂћпЈївЂЎвЂ°Г‹Г‚ГЊГљ 8" x1="-933.84" y1="1192.79" x2="-933.84" y2="1077.31" gradientTransform="translate(1359.6 -505.66) rotate(9.98)" xlink:href="#_Г‚ГЃ_ГЏ_ГЊГЊ_Г€_Г‹Г‚ГЊГљ_8"/>
    <radialGradient id="_Г‚ГЃ_ГЏ_ГЊГЊ_Г€_Г‹Г‚ГЊГљ_49-2" data-name="ВЎГ‚ГЃЛљГЏЛ‡ГЊГЊЛљГ€ вЂћпЈївЂЎвЂ°Г‹Г‚ГЊГљ 49" cx="-801.59" cy="130.23" fx="-801.59" fy="130.23" r="375.77" gradientTransform="translate(1233.63)" xlink:href="#_Г‚ГЃ_ГЏ_ГЊГЊ_Г€_Г‹Г‚ГЊГљ_49"/>
    <linearGradient id="_Г‚ГЃ_ГЏ_ГЊГЊ_Г€_Г‹Г‚ГЊГљ_4-4" data-name="ВЎГ‚ГЃЛљГЏЛ‡ГЊГЊЛљГ€ вЂћпЈївЂЎвЂ°Г‹Г‚ГЊГљ 4" x1="-918.5" y1="1007.78" x2="-918.5" y2="692.11" gradientTransform="translate(1359.6 -505.66) rotate(9.98)" xlink:href="#_Г‚ГЃ_ГЏ_ГЊГЊ_Г€_Г‹Г‚ГЊГљ_4"/>
    <linearGradient id="_Г‚ГЃ_ГЏ_ГЊГЊ_Г€_Г‹Г‚ГЊГљ_122" data-name="ВЎГ‚ГЃЛљГЏЛ‡ГЊГЊЛљГ€ вЂћпЈївЂЎвЂ°Г‹Г‚ГЊГљ 122" x1="-931.7" y1="780.63" x2="-931.7" y2="710.12" gradientTransform="translate(1359.6 -505.66) rotate(9.98)" gradientUnits="userSpaceOnUse">
      <stop offset="0" stop-color="#bfb8d3"/>
      <stop offset=".99" stop-color="#bf6889"/>
    </linearGradient>
    <linearGradient id="_Г‚ГЃ_ГЏ_ГЊГЊ_Г€_Г‹Г‚ГЊГљ_66" data-name="ВЎГ‚ГЃЛљГЏЛ‡ГЊГЊЛљГ€ вЂћпЈївЂЎвЂ°Г‹Г‚ГЊГљ 66" x1="-937.52" y1="779.24" x2="-937.52" y2="734.04" gradientTransform="translate(1359.6 -505.66) rotate(9.98)" gradientUnits="userSpaceOnUse">
      <stop offset="0" stop-color="#e2daed"/>
      <stop offset="1" stop-color="#fff"/>
    </linearGradient>
    <linearGradient id="_Г‚ГЃ_ГЏ_ГЊГЊ_Г€_Г‹Г‚ГЊГљ_185" data-name="ВЎГ‚ГЃЛљГЏЛ‡ГЊГЊЛљГ€ вЂћпЈївЂЎвЂ°Г‹Г‚ГЊГљ 185" x1="-931.6" y1="771.21" x2="-931.6" y2="745.48" gradientTransform="translate(1359.6 -505.66) rotate(9.98)" gradientUnits="userSpaceOnUse">
      <stop offset="0" stop-color="#974855"/>
      <stop offset="1" stop-color="#331736"/>
    </linearGradient>
    <radialGradient id="_Г‚ГЃ_ГЏ_ГЊГЊ_Г€_Г‹Г‚ГЊГљ_93" data-name="ВЎГ‚ГЃЛљГЏЛ‡ГЊГЊЛљГ€ вЂћпЈївЂЎвЂ°Г‹Г‚ГЊГљ 93" cx="-1151.04" cy="1173.47" fx="-1151.04" fy="1173.47" r="63.55" gradientTransform="translate(1359.6 -505.66) rotate(9.98)" gradientUnits="userSpaceOnUse">
      <stop offset="0" stop-color="#c18696"/>
      <stop offset="1" stop-color="#857a8e"/>
    </radialGradient>
    <linearGradient id="_Г‚ГЃ_ГЏ_ГЊГЊ_Г€_Г‹Г‚ГЊГљ_103" data-name="ВЎГ‚ГЃЛљГЏЛ‡ГЊГЊЛљГ€ вЂћпЈївЂЎвЂ°Г‹Г‚ГЊГљ 103" x1="-1092.42" y1="1089.03" x2="-1092.42" y2="760.67" gradientTransform="translate(1359.6 -505.66) rotate(9.98)" gradientUnits="userSpaceOnUse">
      <stop offset="0" stop-color="#010101"/>
      <stop offset=".99" stop-color="#69556c"/>
    </linearGradient>
    <linearGradient id="_Г‚ГЃ_ГЏ_ГЊГЊ_Г€_Г‹Г‚ГЊГљ_4-5" data-name="ВЎГ‚ГЃЛљГЏЛ‡ГЊГЊЛљГ€ вЂћпЈївЂЎвЂ°Г‹Г‚ГЊГљ 4" x1="-917.94" y1="1199" x2="-917.94" y2="946.94" gradientTransform="translate(1359.6 -505.66) rotate(9.98)" xlink:href="#_Г‚ГЃ_ГЏ_ГЊГЊ_Г€_Г‹Г‚ГЊГљ_4"/>
    <linearGradient id="_Г‚ГЃ_ГЏ_ГЊГЊ_Г€_Г‹Г‚ГЊГљ_4-6" data-name="ВЎГ‚ГЃЛљГЏЛ‡ГЊГЊЛљГ€ вЂћпЈївЂЎвЂ°Г‹Г‚ГЊГљ 4" x1="-840.09" y1="1273.02" x2="-840.09" y2="1229.87" gradientTransform="translate(1359.6 -505.66) rotate(9.98)" xlink:href="#_Г‚ГЃ_ГЏ_ГЊГЊ_Г€_Г‹Г‚ГЊГљ_4"/>
    <linearGradient id="_Г‚ГЃ_ГЏ_ГЊГЊ_Г€_Г‹Г‚ГЊГљ_4-7" data-name="ВЎГ‚ГЃЛљГЏЛ‡ГЊГЊЛљГ€ вЂћпЈївЂЎвЂ°Г‹Г‚ГЊГљ 4" x1="-771.88" y1="1195.15" x2="-771.88" y2="1028.45" gradientTransform="translate(1359.6 -505.66) rotate(9.98)" xlink:href="#_Г‚ГЃ_ГЏ_ГЊГЊ_Г€_Г‹Г‚ГЊГљ_4"/>
    <linearGradient id="_Г‚ГЃ_ГЏ_ГЊГЊ_Г€_Г‹Г‚ГЊГљ_8-5" data-name="ВЎГ‚ГЃЛљГЏЛ‡ГЊГЊЛљГ€ вЂћпЈївЂЎвЂ°Г‹Г‚ГЊГљ 8" x1="-924.59" y1="1247.43" x2="-924.59" y2="1192.91" gradientTransform="translate(1359.6 -505.66) rotate(9.98)" xlink:href="#_Г‚ГЃ_ГЏ_ГЊГЊ_Г€_Г‹Г‚ГЊГљ_8"/>
    <linearGradient id="_Г‚ГЃ_ГЏ_ГЊГЊ_Г€_Г‹Г‚ГЊГљ_4-8" data-name="ВЎГ‚ГЃЛљГЏЛ‡ГЊГЊЛљГ€ вЂћпЈївЂЎвЂ°Г‹Г‚ГЊГљ 4" x1="-895.49" y1="1199" x2="-895.49" y2="1049.66" gradientTransform="translate(1359.6 -505.66) rotate(9.98)" xlink:href="#_Г‚ГЃ_ГЏ_ГЊГЊ_Г€_Г‹Г‚ГЊГљ_4"/>
    <linearGradient id="_Г‚ГЃ_ГЏ_ГЊГЊ_Г€_Г‹Г‚ГЊГљ_4-9" data-name="ВЎГ‚ГЃЛљГЏЛ‡ГЊГЊЛљГ€ вЂћпЈївЂЎвЂ°Г‹Г‚ГЊГљ 4" x1="-763.46" y1="1195.15" x2="-763.46" y2="1120.52" gradientTransform="translate(1359.6 -505.66) rotate(9.98)" xlink:href="#_Г‚ГЃ_ГЏ_ГЊГЊ_Г€_Г‹Г‚ГЊГљ_4"/>
    <linearGradient id="_Г‚ГЃ_ГЏ_ГЊГЊ_Г€_Г‹Г‚ГЊГљ_120" data-name="ВЎГ‚ГЃЛљГЏЛ‡ГЊГЊЛљГ€ вЂћпЈївЂЎвЂ°Г‹Г‚ГЊГљ 120" x1="-1007.96" y1="914.71" x2="-941.93" y2="914.71" gradientTransform="translate(1359.6 -505.66) rotate(9.98)" gradientUnits="userSpaceOnUse">
      <stop offset=".01" stop-color="#bf6889"/>
      <stop offset="1" stop-color="#fff"/>
    </linearGradient>
    <linearGradient id="_Г‚ГЃ_ГЏ_ГЊГЊ_Г€_Г‹Г‚ГЊГљ_4-10" data-name="ВЎГ‚ГЃЛљГЏЛ‡ГЊГЊЛљГ€ вЂћпЈївЂЎвЂ°Г‹Г‚ГЊГљ 4" x1="-969.96" y1="876.53" x2="-948.34" y2="876.53" gradientTransform="translate(1359.6 -505.66) rotate(9.98)" xlink:href="#_Г‚ГЃ_ГЏ_ГЊГЊ_Г€_Г‹Г‚ГЊГљ_4"/>
    <linearGradient id="_Г‚ГЃ_ГЏ_ГЊГЊ_Г€_Г‹Г‚ГЊГљ_120-2" data-name="ВЎГ‚ГЃЛљГЏЛ‡ГЊГЊЛљГ€ вЂћпЈївЂЎвЂ°Г‹Г‚ГЊГљ 120" x1="-1169.65" y1="900.45" x2="-1111.63" y2="900.45" xlink:href="#_Г‚ГЃ_ГЏ_ГЊГЊ_Г€_Г‹Г‚ГЊГљ_120"/>
    <linearGradient id="_Г‚ГЃ_ГЏ_ГЊГЊ_Г€_Г‹Г‚ГЊГљ_120-3" data-name="ВЎГ‚ГЃЛљГЏЛ‡ГЊГЊЛљГ€ вЂћпЈївЂЎвЂ°Г‹Г‚ГЊГљ 120" x1="-1161.88" y1="867.91" x2="-1118.35" y2="867.91" xlink:href="#_Г‚ГЃ_ГЏ_ГЊГЊ_Г€_Г‹Г‚ГЊГљ_120"/>
    <linearGradient id="_Г‚ГЃ_ГЏ_ГЊГЊ_Г€_Г‹Г‚ГЊГљ_120-4" data-name="ВЎГ‚ГЃЛљГЏЛ‡ГЊГЊЛљГ€ вЂћпЈївЂЎвЂ°Г‹Г‚ГЊГљ 120" x1="-1171.39" y1="918.65" x2="-1161.88" y2="918.65" xlink:href="#_Г‚ГЃ_ГЏ_ГЊГЊ_Г€_Г‹Г‚ГЊГљ_120"/>
    <linearGradient id="_Г‚ГЃ_ГЏ_ГЊГЊ_Г€_Г‹Г‚ГЊГљ_120-5" data-name="ВЎГ‚ГЃЛљГЏЛ‡ГЊГЊЛљГ€ вЂћпЈївЂЎвЂ°Г‹Г‚ГЊГљ 120" x1="-1169.65" y1="969.18" x2="-1129.16" y2="969.18" xlink:href="#_Г‚ГЃ_ГЏ_ГЊГЊ_Г€_Г‹Г‚ГЊГљ_120"/>
    <linearGradient id="_Г‚ГЃ_ГЏ_ГЊГЊ_Г€_Г‹Г‚ГЊГљ_120-6" data-name="ВЎГ‚ГЃЛљГЏЛ‡ГЊГЊЛљГ€ вЂћпЈївЂЎвЂ°Г‹Г‚ГЊГљ 120" x1="-1167.29" y1="984.24" x2="-1145.93" y2="984.24" xlink:href="#_Г‚ГЃ_ГЏ_ГЊГЊ_Г€_Г‹Г‚ГЊГљ_120"/>
    <linearGradient id="_Г‚ГЃ_ГЏ_ГЊГЊ_Г€_Г‹Г‚ГЊГљ_120-7" data-name="ВЎГ‚ГЃЛљГЏЛ‡ГЊГЊЛљГ€ вЂћпЈївЂЎвЂ°Г‹Г‚ГЊГљ 120" x1="-1148.25" y1="847.16" x2="-1073.86" y2="847.16" xlink:href="#_Г‚ГЃ_ГЏ_ГЊГЊ_Г€_Г‹Г‚ГЊГљ_120"/>
    <linearGradient id="_Г‚ГЃ_ГЏ_ГЊГЊ_Г€_Г‹Г‚ГЊГљ_120-8" data-name="ВЎГ‚ГЃЛљГЏЛ‡ГЊГЊЛљГ€ вЂћпЈївЂЎвЂ°Г‹Г‚ГЊГљ 120" x1="-1129.16" y1="814.16" x2="-1076.96" y2="814.16" xlink:href="#_Г‚ГЃ_ГЏ_ГЊГЊ_Г€_Г‹Г‚ГЊГљ_120"/>
    <linearGradient id="_Г‚ГЃ_ГЏ_ГЊГЊ_Г€_Г‹Г‚ГЊГљ_122-2" data-name="ВЎГ‚ГЃЛљГЏЛ‡ГЊГЊЛљГ€ вЂћпЈївЂЎвЂ°Г‹Г‚ГЊГљ 122" x1="-1021.85" y1="736.16" x2="-1021.85" y2="708.07" xlink:href="#_Г‚ГЃ_ГЏ_ГЊГЊ_Г€_Г‹Г‚ГЊГљ_122"/>
    <linearGradient id="_Г‚ГЃ_ГЏ_ГЊГЊ_Г€_Г‹Г‚ГЊГљ_120-9" data-name="ВЎГ‚ГЃЛљГЏЛ‡ГЊГЊЛљГ€ вЂћпЈївЂЎвЂ°Г‹Г‚ГЊГљ 120" x1="-1093.88" y1="1181.67" x2="-1093.88" y2="906.71" xlink:href="#_Г‚ГЃ_ГЏ_ГЊГЊ_Г€_Г‹Г‚ГЊГљ_120"/>
    <linearGradient id="_Г‚ГЃ_ГЏ_ГЊГЊ_Г€_Г‹Г‚ГЊГљ_120-10" data-name="ВЎГ‚ГЃЛљГЏЛ‡ГЊГЊЛљГ€ вЂћпЈївЂЎвЂ°Г‹Г‚ГЊГљ 120" x1="-1009.63" y1="906.47" x2="-1009.63" y2="905.69" xlink:href="#_Г‚ГЃ_ГЏ_ГЊГЊ_Г€_Г‹Г‚ГЊГљ_120"/>
    <linearGradient id="_Г‚ГЃ_ГЏ_ГЊГЊ_Г€_Г‹Г‚ГЊГљ_103-2" data-name="ВЎГ‚ГЃЛљГЏЛ‡ГЊГЊЛљГ€ вЂћпЈївЂЎвЂ°Г‹Г‚ГЊГљ 103" x1="-858.74" y1="1198.48" x2="-858.74" y2="984.23" xlink:href="#_Г‚ГЃ_ГЏ_ГЊГЊ_Г€_Г‹Г‚ГЊГљ_103"/>
    <linearGradient id="_Г‚ГЃ_ГЏ_ГЊГЊ_Г€_Г‹Г‚ГЊГљ_103-3" data-name="ВЎГ‚ГЃЛљГЏЛ‡ГЊГЊЛљГ€ вЂћпЈївЂЎвЂ°Г‹Г‚ГЊГљ 103" x1="-937.16" y1="708.07" x2="-937.16" y2="679.9" xlink:href="#_Г‚ГЃ_ГЏ_ГЊГЊ_Г€_Г‹Г‚ГЊГљ_103"/>
    <linearGradient id="_Г‚ГЃ_ГЏ_ГЊГЊ_Г€_Г‹Г‚ГЊГљ_103-4" data-name="ВЎГ‚ГЃЛљГЏЛ‡ГЊГЊЛљГ€ вЂћпЈївЂЎвЂ°Г‹Г‚ГЊГљ 103" x1="-1062.45" y1="999.39" x2="-1062.45" y2="765.93" xlink:href="#_Г‚ГЃ_ГЏ_ГЊГЊ_Г€_Г‹Г‚ГЊГљ_103"/>
    <linearGradient id="_Г‚ГЃ_ГЏ_ГЊГЊ_Г€_Г‹Г‚ГЊГљ_103-5" data-name="ВЎГ‚ГЃЛљГЏЛ‡ГЊГЊЛљГ€ вЂћпЈївЂЎвЂ°Г‹Г‚ГЊГљ 103" x1="-836.64" y1="1165.89" x2="-836.64" y2="1029.31" xlink:href="#_Г‚ГЃ_ГЏ_ГЊГЊ_Г€_Г‹Г‚ГЊГљ_103"/>
    <linearGradient id="_Г‚ГЃ_ГЏ_ГЊГЊ_Г€_Г‹Г‚ГЊГљ_143" data-name="ВЎГ‚ГЃЛљГЏЛ‡ГЊГЊЛљГ€ вЂћпЈївЂЎвЂ°Г‹Г‚ГЊГљ 143" x1="-825.61" y1="1210.24" x2="-825.61" y2="1180.06" gradientTransform="translate(1359.6 -505.66) rotate(9.98)" gradientUnits="userSpaceOnUse">
      <stop offset="0" stop-color="#69556c"/>
      <stop offset="1" stop-color="#010101"/>
    </linearGradient>
    <linearGradient id="_Г‚ГЃ_ГЏ_ГЊГЊ_Г€_Г‹Г‚ГЊГљ_142-2" data-name="ВЎГ‚ГЃЛљГЏЛ‡ГЊГЊЛљГ€ вЂћпЈївЂЎвЂ°Г‹Г‚ГЊГљ 142" x1="-984.93" y1="1290.06" x2="-984.93" y2="1258.12" gradientTransform="translate(1359.6 -505.66) rotate(9.98)" xlink:href="#_Г‚ГЃ_ГЏ_ГЊГЊ_Г€_Г‹Г‚ГЊГљ_142"/>
    <linearGradient id="_Г‚ГЃ_ГЏ_ГЊГЊ_Г€_Г‹Г‚ГЊГљ_133-2" data-name="ВЎГ‚ГЃЛљГЏЛ‡ГЊГЊЛљГ€ вЂћпЈївЂЎвЂ°Г‹Г‚ГЊГљ 133" x1="-963.1" y1="1290.38" x2="-963.1" y2="1258.02" gradientTransform="translate(1359.6 -505.66) rotate(9.98)" xlink:href="#_Г‚ГЃ_ГЏ_ГЊГЊ_Г€_Г‹Г‚ГЊГљ_133"/>
    <linearGradient id="_Г‚ГЃ_ГЏ_ГЊГЊ_Г€_Г‹Г‚ГЊГљ_142-3" data-name="ВЎГ‚ГЃЛљГЏЛ‡ГЊГЊЛљГ€ вЂћпЈївЂЎвЂ°Г‹Г‚ГЊГљ 142" x1="-826.17" y1="1324.11" x2="-826.17" y2="1298.31" gradientTransform="translate(1359.6 -505.66) rotate(9.98)" xlink:href="#_Г‚ГЃ_ГЏ_ГЊГЊ_Г€_Г‹Г‚ГЊГљ_142"/>
    <linearGradient id="_Г‚ГЃ_ГЏ_ГЊГЊ_Г€_Г‹Г‚ГЊГљ_133-3" data-name="ВЎГ‚ГЃЛљГЏЛ‡ГЊГЊЛљГ€ вЂћпЈївЂЎвЂ°Г‹Г‚ГЊГљ 133" x1="-801.61" y1="1324.26" x2="-801.61" y2="1295.16" gradientTransform="translate(1359.6 -505.66) rotate(9.98)" xlink:href="#_Г‚ГЃ_ГЏ_ГЊГЊ_Г€_Г‹Г‚ГЊГљ_133"/>
    <linearGradient id="_Г‚ГЃ_ГЏ_ГЊГЊ_Г€_Г‹Г‚ГЊГљ_133-4" data-name="ВЎГ‚ГЃЛљГЏЛ‡ГЊГЊЛљГ€ вЂћпЈївЂЎвЂ°Г‹Г‚ГЊГљ 133" x1="-771.38" y1="1320.74" x2="-771.38" y2="1300.53" gradientTransform="translate(1359.6 -505.66) rotate(9.98)" xlink:href="#_Г‚ГЃ_ГЏ_ГЊГЊ_Г€_Г‹Г‚ГЊГљ_133"/>
    <linearGradient id="_Г‚ГЃ_ГЏ_ГЊГЊ_Г€_Г‹Г‚ГЊГљ_142-4" data-name="ВЎГ‚ГЃЛљГЏЛ‡ГЊГЊЛљГ€ вЂћпЈївЂЎвЂ°Г‹Г‚ГЊГљ 142" x1="-612.13" y1="662.47" x2="-612.13" y2="639.95" gradientTransform="translate(1233.63)" xlink:href="#_Г‚ГЃ_ГЏ_ГЊГЊ_Г€_Г‹Г‚ГЊГљ_142"/>
    <linearGradient id="_Г‚ГЃ_ГЏ_ГЊГЊ_Г€_Г‹Г‚ГЊГљ_133-5" data-name="ВЎГ‚ГЃЛљГЏЛ‡ГЊГЊЛљГ€ вЂћпЈївЂЎвЂ°Г‹Г‚ГЊГљ 133" x1="-591.58" y1="665.18" x2="-591.58" y2="640.38" gradientTransform="translate(1233.63)" xlink:href="#_Г‚ГЃ_ГЏ_ГЊГЊ_Г€_Г‹Г‚ГЊГљ_133"/>
    <linearGradient id="_Г‚ГЃ_ГЏ_ГЊГЊ_Г€_Г‹Г‚ГЊГљ_133-6" data-name="ВЎГ‚ГЃЛљГЏЛ‡ГЊГЊЛљГ€ вЂћпЈївЂЎвЂ°Г‹Г‚ГЊГљ 133" x1="-561.03" y1="665.7" x2="-561.03" y2="650.35" gradientTransform="translate(1233.63)" xlink:href="#_Г‚ГЃ_ГЏ_ГЊГЊ_Г€_Г‹Г‚ГЊГљ_133"/>
    <linearGradient id="_Г‚ГЃ_ГЏ_ГЊГЊ_Г€_Г‹Г‚ГЊГљ_4-11" data-name="ВЎГ‚ГЃЛљГЏЛ‡ГЊГЊЛљГ€ вЂћпЈївЂЎвЂ°Г‹Г‚ГЊГљ 4" x1="-867.6" y1="1243.89" x2="-819.7" y2="1243.89" gradientTransform="translate(1359.6 -505.66) rotate(9.98)" xlink:href="#_Г‚ГЃ_ГЏ_ГЊГЊ_Г€_Г‹Г‚ГЊГљ_4"/>
    <linearGradient id="_Г‚ГЃ_ГЏ_ГЊГЊ_Г€_Г‹Г‚ГЊГљ_4-12" data-name="ВЎГ‚ГЃЛљГЏЛ‡ГЊГЊЛљГ€ вЂћпЈївЂЎвЂ°Г‹Г‚ГЊГљ 4" x1="-1006.65" y1="1188.13" x2="-992.38" y2="1188.13" gradientTransform="translate(1359.6 -505.66) rotate(9.98)" xlink:href="#_Г‚ГЃ_ГЏ_ГЊГЊ_Г€_Г‹Г‚ГЊГљ_4"/>
    <linearGradient id="_Г‚ГЃ_ГЏ_ГЊГЊ_Г€_Г‹Г‚ГЊГљ_4-13" data-name="ВЎГ‚ГЃЛљГЏЛ‡ГЊГЊЛљГ€ вЂћпЈївЂЎвЂ°Г‹Г‚ГЊГљ 4" x1="-1006.95" y1="1189.81" x2="-999.46" y2="1189.81" gradientTransform="translate(1359.6 -505.66) rotate(9.98)" xlink:href="#_Г‚ГЃ_ГЏ_ГЊГЊ_Г€_Г‹Г‚ГЊГљ_4"/>
    <linearGradient id="_Г‚ГЃ_ГЏ_ГЊГЊ_Г€_Г‹Г‚ГЊГљ_143-2" data-name="ВЎГ‚ГЃЛљГЏЛ‡ГЊГЊЛљГ€ вЂћпЈївЂЎвЂ°Г‹Г‚ГЊГљ 143" x1="-769.01" y1="1067.3" x2="-769.01" y2="1010.69" xlink:href="#_Г‚ГЃ_ГЏ_ГЊГЊ_Г€_Г‹Г‚ГЊГљ_143"/>
    <linearGradient id="_Г‚ГЃ_ГЏ_ГЊГЊ_Г€_Г‹Г‚ГЊГљ_4-14" data-name="ВЎГ‚ГЃЛљГЏЛ‡ГЊГЊЛљГ€ вЂћпЈївЂЎвЂ°Г‹Г‚ГЊГљ 4" x1="-933.35" y1="1290.38" x2="-933.35" y2="834.82" gradientTransform="translate(1359.6 -505.66) rotate(9.98)" xlink:href="#_Г‚ГЃ_ГЏ_ГЊГЊ_Г€_Г‹Г‚ГЊГљ_4"/>
    <linearGradient id="_Г‚ГЃ_ГЏ_ГЊГЊ_Г€_Г‹Г‚ГЊГљ_4-15" data-name="ВЎГ‚ГЃЛљГЏЛ‡ГЊГЊЛљГ€ вЂћпЈївЂЎвЂ°Г‹Г‚ГЊГљ 4" x1="-698.12" y1="1335.65" x2="-698.12" y2="1028.44" gradientTransform="translate(1359.6 -505.66) rotate(9.98)" xlink:href="#_Г‚ГЃ_ГЏ_ГЊГЊ_Г€_Г‹Г‚ГЊГљ_4"/>
    <linearGradient id="_Г‚ГЃ_ГЏ_ГЊГЊ_Г€_Г‹Г‚ГЊГљ_4-16" data-name="ВЎГ‚ГЃЛљГЏЛ‡ГЊГЊЛљГ€ вЂћпЈївЂЎвЂ°Г‹Г‚ГЊГљ 4" x1="-553.39" y1="665.7" x2="-553.39" y2="276.08" gradientTransform="translate(1233.63)" xlink:href="#_Г‚ГЃ_ГЏ_ГЊГЊ_Г€_Г‹Г‚ГЊГљ_4"/>
    <linearGradient id="_Г‚ГЃ_ГЏ_ГЊГЊ_Г€_Г‹Г‚ГЊГљ_103-6" data-name="ВЎГ‚ГЃЛљГЏЛ‡ГЊГЊЛљГ€ вЂћпЈївЂЎвЂ°Г‹Г‚ГЊГљ 103" x1="-697.98" y1="140.27" x2="-697.98" y2="326.51" gradientTransform="translate(1233.63)" xlink:href="#_Г‚ГЃ_ГЏ_ГЊГЊ_Г€_Г‹Г‚ГЊГљ_103"/>
    <radialGradient id="_Г‚ГЃ_ГЏ_ГЊГЊ_Г€_Г‹Г‚ГЊГљ_73" data-name="ВЎГ‚ГЃЛљГЏЛ‡ГЊГЊЛљГ€ вЂћпЈївЂЎвЂ°Г‹Г‚ГЊГљ 73" cx="-816.98" cy="876.5" fx="-816.98" fy="876.5" r="29.91" gradientTransform="translate(1359.6 -505.66) rotate(9.98)" gradientUnits="userSpaceOnUse">
      <stop offset="0" stop-color="#a18594"/>
      <stop offset="1" stop-color="#786c82"/>
    </radialGradient>
    <linearGradient id="_Г‚ГЃ_ГЏ_ГЊГЊ_Г€_Г‹Г‚ГЊГљ_4-17" data-name="ВЎГ‚ГЃЛљГЏЛ‡ГЊГЊЛљГ€ вЂћпЈївЂЎвЂ°Г‹Г‚ГЊГљ 4" x1="-872.86" y1="885.29" x2="-828.63" y2="885.29" gradientTransform="translate(1359.6 -505.66) rotate(9.98)" xlink:href="#_Г‚ГЃ_ГЏ_ГЊГЊ_Г€_Г‹Г‚ГЊГљ_4"/>
    <radialGradient id="_Г‚ГЃ_ГЏ_ГЊГЊ_Г€_Г‹Г‚ГЊГљ_93-2" data-name="ВЎГ‚ГЃЛљГЏЛ‡ГЊГЊЛљГ€ вЂћпЈївЂЎвЂ°Г‹Г‚ГЊГљ 93" cx="-805.36" cy="936.09" fx="-805.36" fy="936.09" r="213.4" xlink:href="#_Г‚ГЃ_ГЏ_ГЊГЊ_Г€_Г‹Г‚ГЊГљ_93"/>
    <linearGradient id="_Г‚ГЃ_ГЏ_ГЊГЊ_Г€_Г‹Г‚ГЊГљ_109" data-name="ВЎГ‚ГЃЛљГЏЛ‡ГЊГЊЛљГ€ вЂћпЈївЂЎвЂ°Г‹Г‚ГЊГљ 109" x1="-813.81" y1="818.18" x2="-813.81" y2="730.58" gradientTransform="translate(1359.6 -505.66) rotate(9.98)" gradientUnits="userSpaceOnUse">
      <stop offset="0" stop-color="#f3f2f7"/>
      <stop offset=".99" stop-color="#bf6889"/>
    </linearGradient>
    <linearGradient id="_Г‚ГЃ_ГЏ_ГЊГЊ_Г€_Г‹Г‚ГЊГљ_109-2" data-name="ВЎГ‚ГЃЛљГЏЛ‡ГЊГЊЛљГ€ вЂћпЈївЂЎвЂ°Г‹Г‚ГЊГљ 109" x1="-825.7" y1="953.89" x2="-825.7" y2="792.08" xlink:href="#_Г‚ГЃ_ГЏ_ГЊГЊ_Г€_Г‹Г‚ГЊГљ_109"/>
    <radialGradient id="_Г‚ГЃ_ГЏ_ГЊГЊ_Г€_Г‹Г‚ГЊГљ_128" data-name="ВЎГ‚ГЃЛљГЏЛ‡ГЊГЊЛљГ€ вЂћпЈївЂЎвЂ°Г‹Г‚ГЊГљ 128" cx="-777.9" cy="777.17" fx="-777.9" fy="777.17" r="90.89" gradientTransform="translate(1359.6 -505.66) rotate(9.98)" gradientUnits="userSpaceOnUse">
      <stop offset="0" stop-color="#977889"/>
      <stop offset="1" stop-color="#6f6279"/>
    </radialGradient>
    <linearGradient id="_Г‚ГЃ_ГЏ_ГЊГЊ_Г€_Г‹Г‚ГЊГљ_103-7" data-name="ВЎГ‚ГЃЛљГЏЛ‡ГЊГЊЛљГ€ вЂћпЈївЂЎвЂ°Г‹Г‚ГЊГљ 103" x1="-809.84" y1="885.73" x2="-809.84" y2="779.24" xlink:href="#_Г‚ГЃ_ГЏ_ГЊГЊ_Г€_Г‹Г‚ГЊГљ_103"/>
    <linearGradient id="_Г‚ГЃ_ГЏ_ГЊГЊ_Г€_Г‹Г‚ГЊГљ_103-8" data-name="ВЎГ‚ГЃЛљГЏЛ‡ГЊГЊЛљГ€ вЂћпЈївЂЎвЂ°Г‹Г‚ГЊГљ 103" x1="-812.48" y1="792.71" x2="-812.48" y2="723.02" xlink:href="#_Г‚ГЃ_ГЏ_ГЊГЊ_Г€_Г‹Г‚ГЊГљ_103"/>
    <linearGradient id="_Г‚ГЃ_ГЏ_ГЊГЊ_Г€_Г‹Г‚ГЊГљ_4-18" data-name="ВЎГ‚ГЃЛљГЏЛ‡ГЊГЊЛљГ€ вЂћпЈївЂЎвЂ°Г‹Г‚ГЊГљ 4" x1="-582.36" y1="532.88" x2="-582.36" y2="355.86" gradientTransform="translate(1233.63)" xlink:href="#_Г‚ГЃ_ГЏ_ГЊГЊ_Г€_Г‹Г‚ГЊГљ_4"/>
    <linearGradient id="_Г‚ГЃ_ГЏ_ГЊГЊ_Г€_Г‹Г‚ГЊГљ_4-19" data-name="ВЎГ‚ГЃЛљГЏЛ‡ГЊГЊЛљГ€ вЂћпЈївЂЎвЂ°Г‹Г‚ГЊГљ 4" x1="-399.9" y1="-854.67" x2="-399.9" y2="-855.04" gradientTransform="translate(1312.74 1275.86) rotate(-20.94)" xlink:href="#_Г‚ГЃ_ГЏ_ГЊГЊ_Г€_Г‹Г‚ГЊГљ_4"/>
    <linearGradient id="_Г‚ГЃ_ГЏ_ГЊГЊ_Г€_Г‹Г‚ГЊГљ_4-20" data-name="ВЎГ‚ГЃЛљГЏЛ‡ГЊГЊЛљГ€ вЂћпЈївЂЎвЂ°Г‹Г‚ГЊГљ 4" x1="-314.29" y1="-790.02" x2="-314.29" y2="-968.21" gradientTransform="translate(1312.74 1275.86) rotate(-20.94)" xlink:href="#_Г‚ГЃ_ГЏ_ГЊГЊ_Г€_Г‹Г‚ГЊГљ_4"/>
    <linearGradient id="_Г‚ГЃ_ГЏ_ГЊГЊ_Г€_Г‹Г‚ГЊГљ_4-21" data-name="ВЎГ‚ГЃЛљГЏЛ‡ГЊГЊЛљГ€ вЂћпЈївЂЎвЂ°Г‹Г‚ГЊГљ 4" x1="-318.36" y1="-1053.71" x2="-257.96" y2="-1053.71" gradientTransform="translate(1312.74 1275.86) rotate(-20.94)" xlink:href="#_Г‚ГЃ_ГЏ_ГЊГЊ_Г€_Г‹Г‚ГЊГљ_4"/>
    <linearGradient id="_Г‚ГЃ_ГЏ_ГЊГЊ_Г€_Г‹Г‚ГЊГљ_120-11" data-name="ВЎГ‚ГЃЛљГЏЛ‡ГЊГЊЛљГ€ вЂћпЈївЂЎвЂ°Г‹Г‚ГЊГљ 120" x1="-845.36" y1="501.05" x2="-583.31" y2="501.05" gradientTransform="translate(1233.63)" xlink:href="#_Г‚ГЃ_ГЏ_ГЊГЊ_Г€_Г‹Г‚ГЊГљ_120"/>
    <linearGradient id="_Г‚ГЃ_ГЏ_ГЊГЊ_Г€_Г‹Г‚ГЊГљ_103-9" data-name="ВЎГ‚ГЃЛљГЏЛ‡ГЊГЊЛљГ€ вЂћпЈївЂЎвЂ°Г‹Г‚ГЊГљ 103" x1="-335.13" y1="-913.8" x2="-335.13" y2="-1003.05" gradientTransform="translate(1312.74 1275.86) rotate(-20.94)" xlink:href="#_Г‚ГЃ_ГЏ_ГЊГЊ_Г€_Г‹Г‚ГЊГљ_103"/>
    <linearGradient id="_Г‚ГЃ_ГЏ_ГЊГЊ_Г€_Г‹Г‚ГЊГљ_143-3" data-name="ВЎГ‚ГЃЛљГЏЛ‡ГЊГЊЛљГ€ вЂћпЈївЂЎвЂ°Г‹Г‚ГЊГљ 143" x1="-335.25" y1="-901" x2="-335.25" y2="-919.13" gradientTransform="translate(1312.74 1275.86) rotate(-20.94)" xlink:href="#_Г‚ГЃ_ГЏ_ГЊГЊ_Г€_Г‹Г‚ГЊГљ_143"/>
    <linearGradient id="_Г‚ГЃ_ГЏ_ГЊГЊ_Г€_Г‹Г‚ГЊГљ_4-22" data-name="ВЎГ‚ГЃЛљГЏЛ‡ГЊГЊЛљГ€ вЂћпЈївЂЎвЂ°Г‹Г‚ГЊГљ 4" x1="-400.23" y1="-882.75" x2="-362.34" y2="-882.75" gradientTransform="translate(1312.74 1275.86) rotate(-20.94)" xlink:href="#_Г‚ГЃ_ГЏ_ГЊГЊ_Г€_Г‹Г‚ГЊГљ_4"/>
    <linearGradient id="_Г‚ГЃ_ГЏ_ГЊГЊ_Г€_Г‹Г‚ГЊГљ_423" data-name="ВЎГ‚ГЃЛљГЏЛ‡ГЊГЊЛљГ€ вЂћпЈївЂЎвЂ°Г‹Г‚ГЊГљ 423" x1="3532.28" y1="880.86" x2="3532.28" y2="102.05" gradientTransform="translate(3941.37) rotate(-180) scale(1 -1)" gradientUnits="userSpaceOnUse">
      <stop offset="0" stop-color="#3e6769"/>
      <stop offset=".02" stop-color="#4c716e"/>
      <stop offset=".09" stop-color="#75907e"/>
      <stop offset=".16" stop-color="#99ac8c"/>
      <stop offset=".24" stop-color="#b7c398"/>
      <stop offset=".33" stop-color="#d0d5a1"/>
      <stop offset=".43" stop-color="#e3e4a8"/>
      <stop offset=".54" stop-color="#f0eeae"/>
      <stop offset=".69" stop-color="#f8f4b1"/>
      <stop offset=".97" stop-color="#fbf6b2"/>
    </linearGradient>
  </defs>
  <g class="cls-75">
    <g id="Layer_2" data-name="Layer 2">
      <g id="Layer_1-2" data-name="Layer 1">
        <g>
          <path class="cls-76" d="M32.02,458.35c2.77,1.78,4.95,2.61,6.08,2.07,1.8-.87,3.43-2.52,4.83-4.36,3.07-4.05,4.99-9.08,5-9.11.03-.02,3.07-1.95,7.71-5.43,11.33-8.47,32.28-26.15,42.92-47.93,5.66-11.58,9.94-27.76,14.47-45.4,7.49-29.2,15.65-62.43,31.83-85.63,22.31-32.04,51.61-48.77,59.37-52.85.11-.07.24-.13.35-.18.24-.13.45-.24.63-.33.22-.1.41-.19.55-.27-.03.01-.08.04-.12.05.03-.02.09-.04.12-.06.18-.09.31-.16.35-.18l.04-.02-.07,1.21-.32,5.57s0,0,0,0h0s0,0,0,0c.02,0,.26.08.68.22.04.01.08.03.12.04.12.04.28.1.42.15.2.07.4.14.64.23.08.03.17.06.25.09.3.11.61.22.95.35.08.03.17.06.25.1.35.14.72.28,1.11.44.13.05.26.11.39.16.36.15.73.3,1.12.47.19.08.39.17.58.26.35.15.69.3,1.05.47.26.12.53.25.8.38.31.15.61.29.92.44.33.17.67.34,1.01.52.25.13.51.26.76.4.4.21.79.44,1.18.67.2.11.4.22.59.34.44.26.87.54,1.3.82.15.1.3.19.44.28.47.32.93.65,1.38.99.09.07.19.13.28.2.49.38.95.77,1.4,1.17.04.04.09.07.13.11,1.47,1.33,2.66,2.78,3.39,4.33.14.3.27.68.4,1.08.04.14.09.28.13.44.1.35.19.73.27,1.14.04.21.09.44.13.66.08.41.15.84.21,1.3.04.27.08.54.11.83.05.35.09.72.13,1.1.15,1.4.28,2.95.37,4.67h.03c.1,1.58.19,3.26.26,5.08,0,.26.02.52.03.78.03.97.06,1.95.09,2.97,0,.05,0,.1,0,.16.03,1.04.05,2.12.08,3.22.42,19.94-.19,48.46.6,72.13.08,2.2.16,4.44.22,6.76v.03c0,.09,0,.31,0,.67.1,2.35.2,4.78.29,7.24.03.69.05,1.36.08,2.05,0,.49.03,1.04.05,1.57.02.32.05.61.07.91.02.31.03.63.06.94.11,2.24.24,4.51.37,6.82,0,.1.01.21.02.31.1,1.81.21,3.65.36,5.5.03.41.05.8.08,1.2.03.43.07.87.1,1.3.13,1.94.29,3.89.44,5.83.21,2.42.43,4.87.69,7.33.02.14.04.3.05.44.19,1.89.4,3.79.64,5.72.05.43.12.85.17,1.28.22,1.87.47,3.72.73,5.62.14.99.28,1.93.43,2.9l-.03-.07s-8.92,27.44-28.27,49.36c-2.96,3.37-5.87,6.42-8.65,9.12-15.34,14.99-27.11,20.55-27.11,20.55,0,0-.03.02-.07.08-.45.5-2.58,3.1-5.04,9.06-.01.09-.05.14-.1.23-2.45,5.37-5.1,12.86-6.25,21.81-.05.02-.07.03-.07.03,0,0,.04,0,.07,0-.15,1.15-.24,2.35-.34,3.55,0,0-.02,0-.02,0h0s-.01,0-.01,0l.02.15c-.17,2.14-.27,4.32-.23,6.59l4.39,9.9s.05,39.1-3.1,63.18c-.94,5.04-1.49,9.01-1.49,9.01l.29.08c1.29.41,6.89,2.07,14.18,3.36h.03s6.12,2.33,15.09,1.58h.03c1.01-.06,2.12-.2,3.35-.44.16-.03.31-.07.47-.07,3.38-.62,7.01-1.68,10.82-3.44,18.52-7.28,43.29-22.53,46.03-27.7,3.71-6.95-8.69-17.26-8.69-17.26l-.04-14.7s11.57-10.24,22.5-21.21c.07-.08.11-.1.11-.1,5.65-5.66,11.14-11.48,14.73-16.1l12.05,25.22,1,2.1s0,.01,0,.02v.02c1.71,5.45,2.55,9.33,2.63,11.3.35,6.91-2.6,20.07-2.6,20.07,0,0-.02.04,0,.09,0,0,0,0,0,0h0c.14.97.28,1.93.45,2.88,0,0,0,0,0,0h0c1.4,8.04,4.02,15.51,6.74,21.71.19.45.39.9.58,1.33,1.97,4.43,4.13,8.51,6.34,12.05.27.44.53.86.8,1.29.27.42.51.82.71,1.13.08.12.16.23.23.34.37.56.58.86.58.86h0s0,0,0,.01l11.62,7.38.2,3.19c.02.31.05.66.07,1.06.05.58.07,1.22.12,1.97.02.24.05.51.05.78.02.42.05.84.07,1.29.05.47.07.93.1,1.44.05.53.07,1.09.1,1.68.03.53.07,1.06.1,1.64.02.38.05.75.05,1.15v.11c0,.58-.01,1.17-.08,1.77.02.09.02.18-.02.27-.02.44-.06.89-.12,1.33-.02.27-.06.53-.11.8-.36,2.57-1.04,5.27-1.95,8.02-.13.38-.26.78-.39,1.15-.02.07-.04.16-.09.22-1.22,3.55-2.75,7.14-4.33,10.55-2.52,4.39-4.39,8.52-4.82,9.56,0,0,0,0,0,.01-.02.07-.04.11-.06.16,0,0,0,.01,0,.02-.01.02-.02.05-.02.05,0,0,0,0,0,0,0,0,0,0,0,0,6.27,2.5,18.46,5.18,18.46,5.18,0,0,.02-.13.04-.31l1.02.2c-.06.16-.1.27-.1.27,12.08,2.92,28.14,3.06,28.14,3.06h0s0,0,0,0c0,0-.02-.11,0-.33.68,0,1.34.02,1.98.02,3.9.04,7.09.05,10.18-.1,3.66-.1,6.83-.55,9.4-1.1,3.64-.67,7.82-1.69,13.26-3.26.31-.07.59-.16.9-.24.26-.09.55-.16.84-.24,1.3-.38,2.68-.8,4.13-1.24,3.91-1.17,6.85-3.28,8.93-5.38,1.62-1.62,2.73-3.21,3.43-4.34.61-1,.91-1.62.91-1.62,0,0-4.97-15.27-9.34-32.64l-.2-1c-1.06-4.14-2.06-8.4-2.93-12.56l-.18-.86c-.77-3.81-1.48-7.53-2.03-11.06-.21-1.48-.46-3.06-.63-4.65v-.02c-.47-3.7-.84-7.6-1.13-11.59.02-.02,0-.07,0-.09-.15-1.95-.29-3.92-.39-5.89-.05-1.04-.12-2.1-.18-3.15-.1-1.95-.2-3.88-.26-5.78-.64-16.64-.36-30.93-.36-30.93l.05.07s.05.05.09.1c0,.01,0,.02.02.04.08.11.18.21.26.32.35.46.73.92,1.13,1.38.21.24.42.48.64.72.49.53,1.01,1.05,1.55,1.56.17.16.33.31.5.46.59.54,1.21,1.08,1.85,1.61.02.02.04.03.06.05.73.6,1.49,1.19,2.27,1.77,0,0,0,0,0,0,.08.06.17.13.24.19,1.6,1.32,3.36,2.64,5.24,3.93.08.05.16.11.24.16,2.14,1.46,4.45,2.9,6.95,4.3.12.07.24.13.35.19,1.14.63,2.31,1.26,3.52,1.87.15.08.3.15.45.23,1.33.67,2.7,1.33,4.12,1.98.06.03.13.06.19.08,1.32.6,2.68,1.19,4.08,1.77.25.1.49.2.74.31,2.97,1.21,6.1,2.37,9.41,3.47.28.09.56.18.84.28,1.61.52,3.25,1.04,4.94,1.53.05.01.1.03.15.04,1.79.52,3.63,1.03,5.51,1.51.23.06.47.12.71.18,1.71.44,3.46.86,5.24,1.26.2.05.4.09.61.14,2.01.45,4.05.87,6.15,1.27.05.01.11.02.16.03,2,.38,4.05.74,6.13,1.08.27.04.54.09.81.13,4.35.69,8.88,1.29,13.6,1.78.26.03.52.05.77.08,4.39.44,8.92.8,13.62,1.05.4.02.81.03,1.22.05,1.76.09,3.54.16,5.35.22.17,0,.33.02.5.02.48.02.99.02,1.48.04.29,0,.59,0,.88.01,2.54.06,5.11.1,7.73.1,4.58,0,9.3-.09,14.14-.29,1.32.02,2.67.04,4.08.04.97,0,1.98-.04,3.04-.09.77,0,1.56-.07,2.36-.11h.15c.81-.07,1.67-.11,2.49-.18.42-.04.77-.09,1.17-.11.18-.02.4-.04.62-.07h.02c1.62-.15,3.26-.36,4.92-.6-.49.6-1.02,1.35-1.59,2.31,0,0,0,0,0,.01,0,.01-.01.02-.02.03-.01.02-.02.04-.04.06,0,0,0,.02-.02.03,0,0-.01.02-.02.03-.06.08-.11.18-.17.26-.17.26-.34.53-.51.81-.04.06-.08.14-.12.2-.19.32-.38.65-.57,1-.04.07-.08.16-.12.23-.19.35-.37.71-.56,1.09-.05.09-.09.2-.13.3-.17.37-.35.75-.52,1.15-.06.15-.12.3-.18.45-.15.37-.3.73-.43,1.12-.08.22-.15.45-.22.67-.11.34-.23.67-.33,1.02-.1.35-.2.73-.29,1.09-.09.33-.17.65-.25.99-.13.55-.25,1.11-.35,1.69-.01,0-.05,0-.05,0,0,0,0,0,0,0h0s0,0,.01,0c0,0,.02,0,.04.02-.13.71-.21,1.43-.31,2.16h0s-.01,0-.01,0c0,0,0,0,0,0h0v.1c-.07.66-.14,1.33-.19,2.02-.05.69-.08,1.4-.1,2.13l2.87,7.6s-18.83,31.62-22.03,47.39c0,.03-.01.05-.02.08-.03.11-.06.2-.08.31-.06.23-.13.47-.19.69-.05.19-.09.36-.14.54-.04.17-.09.33-.13.49-.04.16-.08.31-.12.47-.04.17-.08.33-.12.48-.03.13-.07.26-.1.39-.04.16-.08.31-.11.46-.03.11-.05.21-.07.31-.04.16-.07.29-.1.43-.02.07-.04.15-.05.22-.04.18-.08.34-.11.47-.01.05-.02.07-.03.11-.01.06-.03.13-.04.17-.02.06-.03.13-.05.19h.01s0,.01,0,.01l.24.15h.02s0,0,0,0c.11.07.26.11.44.15.15.03.33.06.51.09,0,0,0,0,0,0l10.72,2.7s.03.01.04.02h.03s.02.01.02.01c0,0,0,0,.01,0,.49.26.99.48,1.48.67.15.06.31.11.47.16.35.12.71.24,1.06.34.19.05.37.1.56.15.34.09.68.17,1.02.25.23.05.47.11.7.16.41.09.82.18,1.24.27.04.01.08.02.12.04.51.16,1.07.33,1.62.5.35.11.69.21,1.06.33.33.1.71.22,1.06.33.56.17,1.11.34,1.7.53h.02s0,.01,0,.01c.81.26,1.7.51,2.69.73.01,0,.03,0,.04,0,.03,0,.05.01.07.02.03,0,.06.02.08.02.11.02.21.04.32.09.1.02.26.05.37.08.3.07.59.14.96.22.31.07.64.14,1,.22.23.05.44.1.68.15.37.08.76.17,1.16.25.23.05.44.1.68.15.44.09.88.18,1.33.27.21.04.41.08.62.13.47.09.92.18,1.38.26.2.04.39.07.59.11.46.08.9.15,1.34.22.18.03.37.06.54.09.44.06.85.11,1.25.15.14.02.3.04.43.05.51.05.98.07,1.37.07,0,0,0,0,0,0h0s0,0,0,0c0,0,0,0,0,0,2.27.12,4.83.26,7.55.41,1.36.07,2.75.15,4.18.22,0,0,.02,0,.03,0,.08,0,.17,0,.26.01,1.14.06,2.3.12,3.46.18,14.37.71,29.89,1.15,31.69-.81,0,0,0,0,0,0h0s0,0,0,0c0,0,0,0,0,0,0,0,0,0,0,0,0,0,0,0,0,0,.2-.23.36-.52.48-.86.04-.12.05-.27.08-.4.06-.25.13-.49.16-.78.02-.15,0-.34.01-.51.01-.31.04-.6.03-.94,0-.17-.03-.36-.04-.53-.03-.37-.05-.74-.09-1.13-.02-.16-.05-.33-.08-.49-.06-.44-.13-.88-.21-1.34-.03-.14-.06-.28-.09-.42-.1-.5-.2-1-.32-1.52-.03-.14-.08-.29-.11-.44-.13-.52-.26-1.04-.4-1.57-.02-.06-.03-.12-.05-.18-.17-.61-.34-1.23-.52-1.84,0-.03-.02-.05-.02-.08-.19-.64-.39-1.27-.59-1.89-.03-.08-.05-.15-.08-.23-.18-.56-.37-1.12-.55-1.65-.02-.05-.03-.09-.05-.14-.6-1.75-1.17-3.29-1.6-4.4-.03-.08-.05-.13-.08-.21-.11-.28-.21-.56-.3-.77-.09-.23-.16-.4-.21-.54,0-.02-.02-.06-.03-.08-.06-.15-.09-.22-.09-.23l.31-10.26s6.96-35.36,8.31-53.73c.01-.18.03-.35.04-.53.05-.66.08-1.3.11-1.91,0,0,0-.01,0-.02,0,0,0,0,0-.01.01-.21.02-.42.03-.62.03-.67.04-1.3.04-1.9,0-.33,0-.62,0-.93,0-.29-.01-.58-.02-.85-.01-.29-.03-.58-.05-.85h0s0,0,0,0c-.02-.27-.05-.51-.09-.75-.02-.17-.03-.39-.06-.54-.02-.07-.02-.09-.02-.09-.02-.13-.02-.27-.02-.42.15-2.37,3.87-8.45,8.63-15.54l1.92,24.1-.15.49-.52,1.71c-.95.02-1.45.04-1.45.04.03,1.29.08,2.64.18,4.01l-.88,2.92s0,0,0,0h0c.21,2.64.56,5.35,1,8.03v.16s.02,0,.02,0c2.96,18.62,10.02,36.85,10.02,36.85.12-.01.23-.06.38-.08,0,0,.02,0,.03,0,.52,1.74.94,3.16,1.24,4.11.29.91.45,1.4.45,1.4-5.55,6.87-9.42,15.62-11.9,22.76-.87,2.48-1.58,4.76-2.14,6.71-.93,3.08-1.42,5.36-1.55,6.07.05.29.18.56.37.83,0,.01.03.02.04.04.19.25.43.5.73.73.06.05.14.09.2.14.27.19.56.39.91.57.17.09.38.18.58.27.21.1.4.2.63.3.06.02.13.05.19.07.32.13.68.26,1.04.38.31.11.6.22.94.32.26.08.55.16.82.23.47.14.93.27,1.45.4.14.03.29.07.44.1,1.46.35,3.04.68,4.78.98.51.11,1.04.2,1.57.29,7.39,1.17,16.83,1.97,26.44,2.44,1.85.11,3.7.18,5.55.24,8.38.31,16.64.35,23.58.2h.02c10.97-.24,18.64-1,18.23-2.17,0,0,0-.02,0-.02,0,.01.01.03.01.04.58-2.95.31-7.11-.33-11.45-.02-.13-.03-.25-.05-.37,0-.11-.02-.2-.05-.27-.73-4.7-1.88-9.54-2.87-13.26,0-.01,0-.02,0-.03-.07-.27-.14-.54-.21-.8-.91-3.38-1.62-5.64-1.62-5.64,0,0,14.11-41.29,27.43-85.06.06-.21.13-.42.19-.63.2-.67.41-1.34.61-2.01.18-.61.37-1.22.55-1.83.14-.46.27-.91.41-1.37.27-.88.53-1.77.8-2.65.07-.24.14-.48.21-.71,7.04-23.54,13.56-47.02,17.26-64.46,1.67-7.84,2.75-14.47,3.07-19.32l.02-.02c.5-7.89.32-17.88-.57-29.05-2.56-32-11.14-73.82-27.19-104.29,0,0,.04.04.04.04,0,0,23.4-14.89,39.69-43.49,1.8-3.18,3.54-6.52,5.12-10.03,15.94-35.13,17.82-85.86,17.82-85.86,17.96-27.86,33.5-65.17,33.5-65.17-23.34,11.81-35.85,29.66-35.85,29.66-.58-4.48,1.33-8.27,1.33-8.27-15.46,12.36-7.4,40.59-7.4,40.59,0,0-2.16,60.4-24.98,90.13-.64.83-1.28,1.65-1.94,2.42-22.15,27.25-43.59,26.41-43.59,26.41,0,0,0,0,0,0,0,0,0,0,0,0-17.55-18.66-47.01-42.14-79.44-60.38-6.44-3.63-13-7.07-19.61-10.19-24.29-11.57-88.78-20.19-88.79-21.29-19.02-6.71-35.25-12.83-46.44-21.47,0,0,0,0-.01-.01,0,0,0,0,0-.01,0,0,0-.02.02-.04.32-.59,13.15-24.5,3.75-48.84-.15-.48-.33-.9-.52-1.3-.07-.16-.12-.32-.19-.47-.5-1.15-1.07-2.29-1.67-3.41-2.49-5.84-6.28-11.27-11.9-15.71,0,0-.01,0-.02-.01-15.7-16.05-38.39-28.6-49.3-36.08,0,0,0-.02,0-.02,0,0-5.08-35.87-22.32-53.11C370.34,7.06,344.71.52,310.42.01c-34.24-.44-76.27,12.38-76.29,12.39-.08-.01-4.98-.95-10.16,2.39-2.06,1.25-3.68,2.9-4.94,4.74-6.05,8.24-4.61,17.52-4.52,18.01,0,.02,0,.05,0,.05l-10.07,10.37c-11.21,1.11-23.22,4.17-35.55,8.91l-.84.31c-38.24,14.95-78.72,46.15-103.54,86.03,0,0-.02,0-.02,0l-.42.71c-.39.63-.78,1.26-1.16,1.9-.73,1.22-1.44,2.44-2.14,3.67l-.25.43s0,0,0,0c-2.76,4.9-5.29,9.9-7.54,15.02-.72,1.64-1.4,3.31-2.07,5-.09.23-.18.45-.27.68-.62,1.61-1.21,3.24-1.78,4.89-.11.31-.21.61-.32.92-.55,1.64-1.09,3.3-1.6,4.97-.09.29-.17.59-.26.88-.52,1.73-1.01,3.48-1.48,5.25-.04.14-.07.28-.11.42-.47,1.78-.91,3.58-1.33,5.39-.04.15-.07.3-.11.46-.27,1.18-.53,2.37-.79,3.56h0s0,0,0,0c-.14.65-.27,1.31-.4,1.96-.05.27-.11.54-.16.81-.36,1.83-.7,3.68-1.03,5.53-.04.25-.09.51-.13.76-.33,1.91-.63,3.83-.92,5.76-.02.11-.03.21-.05.32-.6,4.11-1.1,8.26-1.53,12.41,0,.04,0,.08-.01.11-.21,2.09-.4,4.18-.57,6.28,0,.04,0,.09-.01.13-.22,2.77-.42,5.55-.57,8.32h0v.1c-.21,3.58-.36,7.14-.46,10.68v.02s0,0,0,0c-.07,2.36-.11,4.7-.14,7.03h0v.04c-.02,1.69-.03,3.38-.03,5.05v.24s0,0,0,0c.02,32.64,3.61,61.61,5.65,75.36.02.11.04.25.05.36,0,0,0,0,0,0,.39,2.58.71,4.6.94,5.98.01.07.02.13.03.2.06.38.12.73.17,1,.21,1.2.36,2.58.45,4.08.14,2.31.14,4.94-.03,7.79-.04.63-.08,1.28-.14,1.93-1.08,11.98-5.16,26.86-14.01,36.25-7.41,7.86-15.61,8.56-21.56,10.42-4.41,1.37-7.59,3.37-8.29,9.4,0,0,0,0,0,.01-.02.02-.45.63.09,2.8.88,5.8,5.73,13.58,11.72,20.88,7.99,11.31,15.22,16.56,20.03,18.98ZM469.88,183.08c.31-.86,1.42-4.04,2.55-8.67-.58,3.06-1.44,5.97-2.55,8.67ZM528.83,642.93h0s0,0,0,0h0Z"/>
          <g>
            <g>
              <path class="cls-34" d="M627.7,525.13c-8.24,11.77-17.8,25.07-18.07,28.86,0,.15,0,.29.02.42,0,0,0,.02.02.09.64,3.64-.2,12.07-1.54,21.59-2.6,18.33-7.18,40.7-7.18,40.7l-.38,10.2s7.89,19.41,4.61,23.05c-2.45,2.73-31.57.82-47.17,0-3.37-.15-11.06-1.87-13.68-2.4-.13-.07-.26-.09-.4-.11-1.04-.22-1.96-.48-2.8-.75l-.02-.02c-.33-.11-.66-.24-.97-.35-4.03-1.67-7.65-1.48-11.15-3.35h-.02c-6.04-3.22-10.64-2.25-11.72-2.95l-.24-.15c.55-1.63,1.04-3.57,1.5-5.77,3.31-15.69,22.34-47.13,22.34-47.13l-2.82-7.56c.04-1.48.15-2.84.33-4.16v-.07c.11-.73.2-1.45.33-2.16.99-5.35,3.02-9.34,4.85-12.05.02-.04.07-.07.07-.11.4-.6.79-1.08,1.17-1.54.93-1.21,1.74-2.01,2.18-2.42.18-.18.31-.29.37-.33.02-.02.04-.02.04-.02,0,0,2.78-1.1.37-15.8-.44-2.64-.99-5.55-1.74-8.66-2.22-9.58-6.08-19.06-9.52-26.33-3.83-8.13-7.16-13.6-7.16-13.6l.07.04s0,.02.04,0l9.67,5.77s.09.07.13.07l17.1,10.2,4.47,2.67,18.95,11.28,10.44-5.07,24.02-11.63-4.03,15.86-4.19,16.48c.26,0,7.25-6.85,14.79-14.26,8.81-8.68,18.38-18.09,18.71-18.09.51,1.78-5.22,10.18-11.79,19.57Z"/>
              <path class="cls-23" d="M609.67,554.5c.64,3.64-.2,12.07-1.54,21.59-7.68-12.69-38.55-25.63-61.19-19.13.18-.18.31-.29.37-.33.02-.02.04-.02.04-.02,0,0,2.78-1.1.37-15.8-.44-2.64-.99-5.55-1.74-8.66-2.22-9.58-6.08-19.06-9.52-26.33l7.91,1.67,16.42,3.48,29.39,6.21,10.09,2.14,9.89,2.09,10.6,2.23,6.92,1.48c-8.24,11.77-17.8,25.07-18.07,28.86,0,.15,0,.29.02.42,0,0,0,.02.02.09Z"/>
              <path class="cls-41" d="M605.17,650.05c-4.43-11.31-18.28-22.39-18.28-22.39l-10-5.3c17.33,3.55,32.97-66.22,32.77-67.85,1.87,10.63-8.71,62.29-8.71,62.29l-.38,10.2s7.88,19.4,4.6,23.05Z"/>
              <path class="cls-72" d="M551.39,576.77c-6.34,5.54-13.37,2.71-13.37,2.71.15-1.02.29-1.98.46-2.91v-.02c.06-.42.13-.82.22-1.2.13-.73.27-1.42.43-2.08,0-.08,0-.13.05-.19.87-3.93,1.9-6.99,2.94-9.3.48-1.04.95-1.95,1.4-2.74.03-.04.06-.06.07-.12,1.84-3.07,3.39-4.11,3.71-4.29.03-.02.05-.03.05-.03,0,0,10.38,14.62,4.03,20.16Z"/>
              <path class="cls-39" d="M528.99,643.06h-.02s-11.72-2.95-11.72-2.95l-.24-.15s.57-2.58,1.49-5.78c1.61-5.37,4.27-12.47,7.24-11.95,4.72.8,3.25,20.83,3.25,20.83Z"/>
              <path class="cls-38" d="M558,650.05c-3.22.02-10.87-1.78-13.69-2.42-.13-.05-.26-.07-.39-.1-.96-.23-1.89-.49-2.8-.75h-.02c-7.48-2.32-12.11-3.72-12.11-3.72,0,0,3.35-15.26,10.49-13.54,7.19,1.73,18.52,20.52,18.52,20.52Z"/>
              <path class="cls-22" d="M544.74,559.39s6.6,6.76,5.35,12.97c-1.25,6.21-11.6,4.22-11.6,4.22l-.15-1.32s8.26,2.24,10.41-3.12c2.15-5.36-4.54-11.85-4.54-11.85l.53-.9Z"/>
              <path class="cls-47" d="M542.14,563.78s3.64.78,2.98,6.24c-.66,5.47-6.49,3.06-6.49,3.06,0,0,3.92.23,5.19-2.72,1.27-2.94-1.68-6.59-1.68-6.59Z"/>
            </g>
            <path class="cls-45" d="M639.48,505.56c-.33,0-9.89,9.41-18.71,18.09l-10.6-2.23,4.03-15.86-24.02,11.63-29.39-6.21-4.47-2.67-17.1-10.2s-.09-.04-.13-.07l-9.67-5.77s-.04.02-.04,0l-.07-.04s3.33,5.46,7.16,13.6c3.44,7.27,7.29,16.75,9.52,26.33.75,3.11,1.3,6.02,1.74,8.66,2.39,14.61-.34,15.78-.37,15.8,0,0,0,0,0,0,0,0-.02,0-.05.03-.32.19-1.86,1.22-3.7,4.28,0,0,0,0-.01.01,0,.01-.01.02-.02.03-.02.03-.03.05-.05.08,0,0-.01.02-.02.03-1.82,2.71-3.84,6.68-4.83,12.02-.01,0-.06,0-.06,0,0,0,.02,0,.05.02-.13.7-.22,1.42-.33,2.15h0s-.02,0-.02,0v.1c-.16,1.31-.27,2.66-.31,4.13l2.82,7.56s-19.04,31.44-22.34,47.13c0,.03-.01.05-.02.08-.77,2.67-1.28,4.88-1.43,5.51-.02.06-.04.13-.05.19h.01s0,.01,0,.01l.24.15h.02c.2.13.54.19.95.25l10.7,2.68s.03.01.04.02h.03s0,0,0,0h0s0,0,0,0c0,0,.02,0,.02,0,2.12,1.13,4.28,1.5,6.54,1.99,1.61.49,3.45,1.06,5.55,1.71h.02s0,.01,0,.01c.82.26,1.72.51,2.72.73.03,0,.05.01.07.02.03,0,.06.02.08.02.11.02.21.04.32.09.1.02.26.05.38.08,3.06.69,10.21,2.34,13.3,2.33,0,0,0,0,0,0,0,0,0,0,0,0,15.59.81,44.68,2.73,47.17,0h0s0,0,0,0c0,0,0,0,0,0,3.28-3.63-4.58-23-4.6-23.04l.38-10.2s7.2-35.16,8.67-53.43c.01-.18.03-.35.04-.53.05-.67.09-1.3.13-1.92.01-.21.03-.43.04-.64.03-.67.05-1.29.06-1.89,0-.32,0-.62,0-.92,0-.29,0-.58-.02-.85-.01-.29-.02-.58-.04-.84-.02-.27-.05-.51-.08-.75-.02-.17-.03-.38-.06-.54-.02-.07-.02-.09-.02-.09-.02-.13-.02-.26-.02-.42.26-3.79,9.83-17.1,18.07-28.86,6.57-9.39,12.3-17.78,11.79-19.57Z"/>
            <path class="cls-37" d="M816.51,115.73s-12.16,40.17-30.3,67.87c0,0-2.22,50.45-18.39,85.38-1.6,3.49-3.36,6.81-5.19,9.97-16.48,28.44-39.98,43.24-39.98,43.24,0,0-13.03-12.26-16.13-23.46,0,0,21.43.84,43.76-26.27.67-.77,1.31-1.59,1.95-2.41,23.02-29.57,25.58-89.63,25.58-89.63,0,0-5.71-26.94,4.18-43.31,0,0-1.04,6.37-.49,10.82,0,0,11.58-20.47,35-32.21Z"/>
            <path class="cls-42" d="M762.63,278.95c-16.48,28.44-39.98,43.24-39.98,43.24,0,0-13.03-12.26-16.13-23.46,0,0,21.43.84,43.76-26.27l12.35,6.48Z"/>
            <path class="cls-59" d="M279.62,495.02v.03c-.4.51-.79,1.04-1.25,1.57-3.63,4.6-9.16,10.38-14.84,16.01,0,0-.03.02-.11.1-11,10.9-22.64,21.09-22.64,21.09l-.06,14.62s12.34,10.26,8.58,17.17c-2.78,5.14-27.65,20.3-46.22,27.55-4,1.57-7.69,2.77-10.84,3.42-.15,0-.31.04-.47.07-1.22.24-2.34.38-3.35.44h-.03c-.4.02-.79,0-1.15,0-4.87-.19-9.7-.83-13.93-1.57h-.03c-7.29-1.29-12.87-2.94-14.16-3.34l-.29-.08c.58-2.59,1.08-5.62,1.55-8.96,3.3-23.95,3.51-62.83,3.51-62.83l-4.32-9.85c-.02-2.28.1-4.47.28-6.62v-.08s0,0,0,0c.1-1.19.2-2.38.36-3.53,1.2-8.9,3.91-16.36,6.39-21.71.04-.08.08-.14.1-.22.54-1.15,1.08-2.17,1.58-3.11,1.78-3.41,3.24-5.49,3.52-5.89.04-.05.07-.08.07-.08,0,0,11.81-5.52,27.25-20.43,2.8-2.69,5.73-5.72,8.71-9.07,19.49-21.8,28.59-49.09,28.59-49.09l.04.1s-.03.02.02.03l5.46,13.2c.02.06,0,.12.06.16l9.62,23.32,13.19,31.91,14.77,35.7Z"/>
            <path class="cls-44" d="M279.62,495.02v.03c-.4.51-.79,1.04-1.25,1.57-3.63,4.6-9.16,10.38-14.84,16.01-30.26-55.23-64.38-63.87-64.38-63.87,2.8-2.69,5.73-5.72,8.71-9.07,19.49-21.8,28.59-49.09,28.59-49.09l.04.1s-.03.02.02.03l5.46,13.2c.02.06,0,.12.06.16l9.62,23.32,13.19,31.91,14.77,35.7Z"/>
            <path class="cls-58" d="M749.1,425.87c-3.04-41.25-16.08-98.91-42.59-127.14-17.43-18.55-46.73-41.91-79.04-60.04-6.41-3.61-12.96-7.03-19.54-10.14-24.22-11.5-88.64-20.07-88.64-21.17-18.97-6.68-35.17-12.76-46.29-21.35-8.13-6.3-17.21-19.61-25.76-34.7-17.78-31.42-33.38-70.62-33.38-70.62,0,0-4.85-35.67-21.97-52.82-17.19-17.16-42.77-23.66-77.05-24.17-34.24-.44-76.37,12.32-76.37,12.32-21.06-.68-19.79,25.05-19.79,25.05l-10.14,10.31c-11.21,1.1-23.25,4.14-35.61,8.86l-.84.31c-45.06,17.47-93.38,57.27-115.77,107.17-25.4,56.63-15.4,145.69-11.55,172.72,0,0,.02.04.04.11.46,3.37.84,5.8,1.08,7.03.55,3.42.66,8.26.18,13.73-1.17,11.9-5.33,26.71-14.23,36.05-13.02,13.62-28.27,5.62-29.99,19.7-1.72,14.1,31.82,47.26,37.61,44.49,5.77-2.78,9.92-13.4,9.92-13.4,0,0,35.76-22.5,50.96-53.06,15.25-30.58,20.98-93.29,47.18-130.31,22.52-31.86,51.93-48.5,59.71-52.55.11-.07.24-.13.35-.18.53-.29.93-.46,1.19-.6.18-.09.31-.15.35-.18l.04-.02-.42,6.74h.02c.86.29,17.32,5.51,21.06,13.55.86,1.85,1.41,5.75,1.67,11.15h.04c.15,2.67.24,5.66.31,8.95.44,19.9-.48,50.11.18,74.94.07,2.18.13,4.41.2,6.72l-.02.04c.02.09.02.29.02.64.09,2.97.2,6.08.29,9.25,0,.48.02,1.04.04,1.56.04.64.07,1.23.13,1.83.09,2.25.18,4.52.31,6.79.11,2.29.22,4.63.42,6.98.11,2.36.31,4.74.48,7.09.2,2.4.4,4.85.64,7.29.2,2.01.4,4.05.66,6.13.22,2.29.53,4.54.84,6.85.13.99.26,1.94.42,2.91v.02c.09.55.15,1.17.24,1.72.18,1.12.33,2.25.53,3.37.4,2.29.79,4.6,1.23,6.94.09.53.18,1.04.29,1.59.44,2.05.88,4.14,1.32,6.15.31,1.39.62,2.73.95,4.08.51,2.07,1.06,4.14,1.63,6.21.18.62.33,1.23.53,1.83.99,3.44,2.07,6.83,3.28,10.16.42,1.17.86,2.34,1.3,3.53.44,1.1.86,2.16,1.3,3.24,2.89,7.01,6.3,13.64,10.36,19.83,1.85,2.89,3.64,5.75,5.31,8.53,5.99,9.76,10.88,18.93,14.87,27.12v.02c4.67,9.78,8.09,18.22,10.38,24.92.07.24.13.48.24.75.04.22.09.31.09.31v.02c.29.93.62,1.83.9,2.78v.02c1.67,5.42,2.49,9.28,2.56,11.24.31,6.87-2.73,19.96-2.73,19.96,0,0-.02.04,0,.09.13.95.26,1.92.44,2.86.09.51.2.99.31,1.5.04.18.07.37.11.57v.09c.04.15.07.31.11.48.33,1.52.68,3.04,1.08,4.54.66,2.6,1.43,5.09,2.29,7.47.29.82.57,1.63.88,2.45.55,1.48,1.15,2.95,1.76,4.38.2.48.42.97.62,1.43,2.31,5.11,4.63,9.25,6.26,11.99.26.44.53.86.79,1.28.26.42.51.82.7,1.12.26.42.53.82.82,1.21l11.57,7.34.18,3.17c.02.31.04.66.07,1.06.04.57.07,1.21.11,1.96.02.24.04.51.04.77.02.42.04.84.07,1.28.04.46.07.93.09,1.43.04.53.07,1.08.09,1.67.02.53.07,1.06.09,1.63.02.37.04.75.04,1.15v.11c0,.57-.02,1.17-.09,1.76.02.09.02.18-.02.26-.02.44-.07.88-.13,1.32-.02.26-.07.53-.11.79-.37,2.56-1.08,5.24-2,7.98-.13.37-.26.77-.4,1.15-.02.07-.04.15-.09.22-1.21,3.5-2.69,6.96-4.1,9.98-1.92,4.19-3.79,7.56-4.69,9.17-.07.11-.13.2-.18.31-.07.13-.13.24-.2.35-.04.07-.09.13-.13.2-.02.07-.04.11-.07.15,0,.02,0,.04-.02.07,6.43,2.07,12.63,3.64,18.46,4.85l1.04.18c10.36,2.09,19.72,2.93,28.01,3,.68,0,1.34.02,1.98.02,1.85-.02,3.61-.09,5.33-.15h.02c7.25-.33,13.55-1.19,18.71-2.23,3.42-.66,6.35-1.39,8.81-2.05.31-.07.59-.15.9-.24.26-.09.55-.15.84-.24,1.3-.37,2.69-.79,4.14-1.23,3.92-1.17,6.87-3.26,8.97-5.35,1.63-1.61,2.75-3.19,3.46-4.32.62-.99.93-1.61.93-1.61,0,0-4.87-15.18-9.12-32.46l-.2-.99c-1.04-4.12-2-8.35-2.84-12.49l-.18-.86c-.75-3.79-1.43-7.49-1.96-10.99-.2-1.48-.44-3.04-.59-4.63v-.02c-.44-3.68-.79-7.56-1.06-11.52.02-.02,0-.07,0-.09-.13-1.94-.26-3.9-.35-5.86-.04-1.04-.11-2.09-.15-3.13-.09-1.94-.18-3.86-.22-5.75-.53-16.55-.15-30.76-.15-30.76,0,.02.02.02.04.04.02.04.04.07.09.11-.02.02,0,.02.02.04.09.04.13.09.18.18.35.29.93.79,1.67,1.45,1.78,2.07,3.9,4.14,6.37,6.19.75.64,1.56,1.28,2.4,1.89,16.06,12.25,44.38,23.31,85.76,26.4,4.34.33,8.84.57,13.48.71.48.02.99.02,1.48.04,2.82.07,5.68.11,8.62.11,4.58,0,9.3-.09,14.15-.29,1.32.02,2.67.04,4.08.04.97,0,1.98-.04,3.04-.09.77,0,1.56-.07,2.36-.11h.15c.82-.07,1.67-.11,2.49-.18.42-.04.77-.09,1.17-.11.18-.02.4-.04.62-.07h.02c6.72-.64,13.84-1.98,20.73-4.38.42-.15.9-.31,1.34-.48.73-.29,1.43-.57,2.16-.88.66-.29,1.34-.62,2-.97.38-.15.68-.31,1.01-.46.59-.31,1.17-.59,1.74-.9.04-.02.09-.04.15-.07,3.94-1.89,45.54-16.92,48.36-17.96.11-.02.15-.04.15-.04l2.16,29.44-.15.48-.53,1.7-1.04,3.22-.04.13-.22.68-.9,2.91c.13,1.48.44,3.17.77,5l.02.18c.15.88.35,1.81.51,2.78.86,4.16,2,8.88,3.26,13.62,2.03,7.78,4.32,15.62,5.97,21.13.22.71.42,1.37.62,1.98.51,1.74.93,3.15,1.21,4.1.29.9.44,1.39.44,1.39-5.6,6.83-9.52,15.53-12.05,22.63-.88,2.47-1.61,4.74-2.18,6.68-.95,3.06-1.45,5.33-1.59,6.04.18,1.08,1.41,2.03,3.44,2.86,2.29.97,5.62,1.78,9.63,2.47.51.11,1.04.2,1.56.29,7.38,1.17,16.81,1.96,26.42,2.42,1.85.11,3.7.18,5.55.24,8.37.31,16.64.35,23.58.2h.02c10.97-.24,18.64-.99,18.24-2.16.04-.26.11-.55.13-.84.44-2.95.15-6.87-.42-10.91,0-.11-.02-.2-.04-.26-1.19-7.98-3.61-16.37-4.36-18.88-.02-.04-.04-.09-.04-.13-.07-.29-.13-.46-.15-.55-.02-.04-.02-.07-.02-.07,0,0,37.08-105.87,48.52-157.83,1.72-7.8,2.84-14.39,3.19-19.21l.02-.02c.55-7.84.44-17.78-.37-28.89Z"/>
            <path class="cls-48" d="M406.44,295.19c3.36-19.38-7.54-83.47-7.54-83.47l-32.2-88.32,42,32.64-34.26-97.91c-8.76,4.03-20.16,1.15-20.16,1.15,0,0,2.13-29.31-11.82-38.87-12.32-8.47-24.18-1.98-26.83-.33,4.88-2.78,16.78-4.16,22.25,2.61,5.66,7.05,2.11,37.59,2.11,37.59,0,0-.81-21.22-13.39-28.73-12.55-7.51-23.97-4.22-23.97-4.22-30.25-10.35-64.16-11.29-64.16-11.29-21.08-.68-19.79,25.05-19.79,25.05l-10.15,10.33c28.26.82,74.47,15.49,74.47,15.49-3.79,6.9-13.55,30.6.47,46.26,14.98,16.72,38.74,6.82,38.74,6.82,11.65,10.74,21.6,66.17-19.63,85.38-41.25,19.27-86.64,13.41-86.64,13.41l1.22-5.57c26.59-1.89,49.04-26.2,49.04-26.2l8.31,1.46c-8.25-9.02-20.43-8.65-20.43-8.65l5.45,3.47c-14.52,25.22-50.35,28-50.35,28l-.43,6.74s17.24,5.3,21.09,13.55c1.3,2.77,1.85,10.14,2.04,20.1,6.92,14.18,10.58,31.27,10.87,32.56.05-23.16-3.97-40.25-3.97-40.25,34.55,12.92,68.12.14,68.12.14-24.66,22.4-49.06,73.14-49.06,73.14,20.64-38.96,64.55-72.24,88.24-99.87,0,0,24.82,64.5,19.95,125.42,0,0,37.06-28.24,40.42-47.61ZM293.58,114.07c-17.52-8.69-14.38-28.27-14.38-28.27,0,0,3.71,10.27,16.36,17.01,12.29,6.58,29.83-.37,30.69-.62-.74.93-15.66,20.32-32.67,11.88ZM363.26,120.73c-.02.13-.03.24-.05.37-.06-.3-.1-.49-.1-.49l.15.12Z"/>
            <path class="cls-53" d="M283.01,66.9s7.8-36.09,25.7-35.73c17.9.36,31.88,7.12,32.24,40.88s-34.61,34.62-48.18,24.18c-13.57-10.44-9.76-29.33-9.76-29.33Z"/>
            <path class="cls-79" d="M293.28,57.49s9.95-6.33,22.81-.53c12.86,5.8,12.31,24.08,9.16,31.14-3.34,7.49-18.56,16.55-32.47,8.14-13.92-8.41-12.94-29.76.51-38.75Z"/>
            <path class="cls-73" d="M321.34,81.67c-1.23,7-7.02,11.83-12.93,10.79-5.91-1.04-9.7-7.55-8.47-14.55,1.23-7,7.02-11.83,12.93-10.79,5.91,1.04,9.7,7.55,8.47,14.55Z"/>
            <path class="cls-76" d="M303.93,75.86c-.29,1.65-1.87,2.76-3.52,2.47-1.65-.29-2.76-1.87-2.47-3.52.29-1.65,1.87-2.76,3.52-2.47,1.65.29,2.76,1.87,2.47,3.52Z"/>
            <path class="cls-78" d="M293.28,57.49l1.32-7.5s18.22-3.3,27.22,5.74c9.01,9.04,6.59,25.46,4.25,30.75,0,0,4.69-14.32-4.98-25.01-6.98-7.72-23.5-7.73-27.82-3.98Z"/>
            <path class="cls-35" d="M1.87,417.08s15.18,11.25,19.06.32c10.9,4.76,18.91,24.95,20.95,32.64,2.04,7.7-2.4,11.5-2.4,11.5,0,0-11.88-.82-26.07-21.07-14.19-20.25-11.53-23.4-11.53-23.4Z"/>
            <path class="cls-57" d="M115.54,252.95c-40.29,74.08-25.08,101.4-44.7,117.42-5.83,4.76-14.9.01-24.76-9.05.51-5.45.39-10.29-.19-13.72-1.86-10.93-18.2-116.01,10.45-179.87,22.37-49.88,70.71-89.68,115.76-107.16l.84-.31,1.36-.49s38.83-2.59,49.93,26.05c11.08,28.6-68.4,93.03-108.69,167.13Z"/>
            <path class="cls-46" d="M290.33,521.04v-.03c-.11-.35-.23-.71-.35-1.06-2.27-6.7-5.66-15.14-10.37-24.9v-.03c-3.97-8.21-8.87-17.37-14.84-27.14-1.69-2.78-3.46-5.64-5.35-8.51-4.03-6.19-7.43-12.85-10.32-19.84-.45-1.08-.89-2.16-1.3-3.26-.46-1.17-.89-2.34-1.32-3.5-1.2-3.33-2.27-6.73-3.27-10.15-.2-.61-.36-1.24-.52-1.85-.57-2.07-1.12-4.13-1.63-6.22-.34-1.33-.65-2.69-.95-4.07-.46-2.02-.89-4.09-1.31-6.14-.12-.54-.21-1.07-.29-1.6-.44-2.32-.85-4.63-1.23-6.94-.28-1.68-.56-3.37-.74-5.07q-.06-.01-.02-.03c-.16-.97-.3-1.93-.42-2.92-.32-2.3-.62-4.56-.86-6.84-.24-2.07-.46-4.11-.65-6.14-.24-2.43-.45-4.86-.63-7.26-.18-2.39-.37-4.76-.5-7.11-.16-2.36-.3-4.69-.41-6.98-.11-2.29-.23-4.55-.32-6.78.85,13.96,3.12,36.68,9.28,57.27.02.06,0,.12.06.16,2.49,8.37,5.66,16.38,9.62,23.32l13.7,4.23s-7.32-78.39,3.38-115.64c0,0-6.39,34.1-1.84,57.79,0,0,12.94-62.9,40.07-103.16-.05.11-.13.22-.18.33-2.12,4.11-18.32,36.66-26.91,76.88l-.07.38c-2.25,10.57-3.96,21.65-4.75,32.87-.07.93-.11,1.86-.16,2.79-.07.9-.1,1.8-.17,2.7-.5,10.91-.29,22.3.4,33.69.03.67.09,1.38.15,2.06,1.42,21.54,4.47,42.91,7.58,60.54.07.47.17.94.24,1.4,3.57,20.01,7.08,34.95,8.13,39.53-.29-.93-.61-1.86-.91-2.76Z"/>
            <path class="cls-52" d="M342.4,591.41l-23.6,12.41-11.58-7.34s-12.15-17.34-15.73-38.5c-.17-.94-.3-1.9-.44-2.86.04.1.1.32.17.6.16.48.36,1.21.68,2.18.14.42.3.9.44,1.44.01.09.05.22.1.32l.02.03s.02.06.01.09c1.72,5.21,4.89,13.88,9.2,21.58,2.6,4.67,5.66,8.96,9.08,11.89.02.03.05.07.05.07.32.09.64.17.99.23.61.14,1.22.25,1.83.36,2.03.34,5.09.7,8.92.69.06.01.12,0,.18,0,5.12-.04,11.54-.7,18.75-2.94.41-.11.73-.2.92-.26Z"/>
            <path class="cls-51" d="M421.8,542.87c-.17-.09-.36-.18-.53-.25-.36-.18-.7-.33-1.06-.52-.75-.37-1.5-.75-2.23-1.12-.05-.04-.08-.04-.14-.08-.72-.37-1.42-.73-2.1-1.13-.91-.49-1.8-.98-2.64-1.49-1.92-1.13-3.75-2.26-5.43-3.38-1.63-1.04-3.14-2.1-4.51-3.12-.03,0-.06-.01-.08-.05h-.03c-.7-.52-1.37-1-2.01-1.48-1.71-1.3-3.23-2.48-4.47-3.51-.37-.31-.74-.61-1.06-.88-1.53-1.27-2.55-2.21-3.08-2.66-.07-.1-.13-.14-.15-.18h-.03c-.05-.07-.08-.08-.1-.11l-.05-.07-2.01-48.81.03-.02c.41-.29,4.88-3.44,9-10.89h.03s0-.02,0-.02c3.45-6.18,6.69-15.3,7.26-28.19,1.31-27.42-13.05-61.81-14.91-66.19.07.1.16.27.26.44,13.58,24.04,18.18,44.69,19.44,59.05.02.22.04.43.07.65,1.08,13.15-.61,20.85-.61,20.85,12.29-15.28,20.63-47.73,24.2-63.88.12-.49.24-1.02.36-1.51.78-3.66,1.27-6.28,1.48-7.42.04-.21.08-.42.11-.63,0,0-.01.06,0,.18-.02.3-.04.6-.07.9,0,.15,0,.3-.02.48-.04.39-.05.78-.08,1.17-.03.69-.09,1.38-.15,2.06.01.09,0,.18-.02.27-3.37,38.11-20.13,65.69-28.7,96.71-.02.09-.06.14-.07.23-4.82,17.6,2.04,39,9.32,54.94,1.62,3.53,3.26,6.78,4.78,9.68Z"/>
            <path class="cls-43" d="M249.3,565.61c-5.69-13.6-19.91-11.62-19.91-11.62l-2.66-10.19-12.07-2.12c20.71-4.29,46.97-27.35,48.76-28.94-11,10.9-22.64,21.09-22.64,21.09l-.06,14.62s12.34,10.26,8.58,17.17Z"/>
            <path class="cls-49" d="M291.24,523.81l-.99-2.11-11.88-25.08-13.6-28.74s-.01-3.21.08-8.56c.37-19.47,2.19-67.21,11.35-89.8-.49,2.79-11.81,69.55,13.78,150.43.12.35.24.71.36,1.06v.03c.29.9.61,1.83.9,2.76Z"/>
            <path class="cls-50" d="M421.8,542.87c-.17-.09-.36-.18-.53-.25-2.19-.96-10.61-4.77-18.21-9.93-.05-.04-.11-.05-.16-.12-4.17-2.82-8.1-6.09-10.62-9.53l-.02-.03c-.05-.07-.08-.07-.1-.11l-2.06-48.88.03-.02,9-10.89h.03c.01,1.31.2,39.83,16.52,69.96,1.82,3.41,3.85,6.67,6.12,9.8Z"/>
            <path class="cls-72" d="M291.06,555.12s19.81-9.48,45.1,4.56c0,0,7.4,19.47,6.4,31.66,0,0-17.53,5.75-31.75,1.98,0,0-16.23-23.62-19.75-38.21Z"/>
            <path class="cls-72" d="M178.48,497.67c-8.79,12.63-18.91,12.79-18.91,12.79.17-1.67.33-3.24.54-4.78v-.03c.07-.69.15-1.34.26-1.98.15-1.22.33-2.37.52-3.48,0-.12,0-.21.06-.32,1.07-6.62,2.41-11.99,3.79-16.23.64-1.92,1.27-3.62,1.87-5.12.04-.08.08-.14.1-.22,2.5-5.92,4.65-8.51,5.1-9.01.04-.05.07-.08.07-.08,0,0,15.38,15.85,6.59,28.48Z"/>
            <path class="cls-54" d="M276.46,214.48s-17.55,25.74-44.88,28.23h-.03c-.29-5.39-.85-9.3-1.7-11.15-3.73-8.05-20.2-13.27-21.06-13.55.79.14,27.16,4.66,67.67-3.54Z"/>
            <path class="cls-20" d="M254.09,179.81l5.45,3.47s-1.17,12.04-9.03,16.9c0,0,7.96-4.95,15.71-13.19l8.31,1.46s-8.28-10.3-20.43-8.65Z"/>
            <path class="cls-27" d="M52.32,177.84s30.61-2.02,55.84,13.77c0,0-29.36-10.09-57.14-10.05l1.3-3.72Z"/>
            <path class="cls-26" d="M67.98,146.12s21.43-2.85,40.12,7.06c0,0-29.31-4.59-44.14-.39l4.01-6.67Z"/>
            <polygon class="cls-33" points="49.09 192.54 56.22 196.86 46.02 199.98 49.09 192.54"/>
            <path class="cls-31" d="M40.36,242.13s23.77-.35,40.11,5.74c0,0-27.93,1.58-40.64,4.99l.53-10.74Z"/>
            <path class="cls-32" d="M39.64,259.86s9.25-1.45,21.33,2c0,0-14.21,1.22-21.39,3.3l.06-5.31Z"/>
            <path class="cls-30" d="M82.5,126.15s37.63-2.56,71.24,24.47c0,0-13.96-22.51-68.26-28.01l-2.98,3.54Z"/>
            <path class="cls-28" d="M106.21,101.56s27.71-.43,50.89,11.97c0,0-14.17-13.95-46.85-15.48l-4.04,3.51Z"/>
            <path class="cls-24" d="M218.68,41.08s13.22-23.21,19.79-25.05c0,0-8.42-1.68-14.95,6.8-6.53,8.48-4.84,18.24-4.84,18.24Z"/>
            <path class="cls-29" d="M207.23,212.23c-7.77,4.05-37.16,20.69-59.7,52.55-26.2,37.03-31.93,99.74-47.15,130.32-15.22,30.57-50.98,53.06-50.98,53.06,0,0-4.14,10.63-9.93,13.4-5.79,2.77-39.32-30.39-37.6-44.47,1.72-14.08,16.97-6.1,29.97-19.71,8.91-9.34,13.09-24.14,14.25-36.05.51-5.45.39-10.29-.19-13.72-.21-1.22-.6-3.65-1.06-7.03.52,1.85,8.78,28.92,26.01,29.8,17.83.9,29.13-23.92,54.86-78.39,22.94-48.48,71.25-74.63,81.53-79.75Z"/>
            <path class="cls-70" d="M208.78,211.48c-.27.14-.66.31-1.19.58.53-.27.93-.47,1.19-.58Z"/>
            <path class="cls-4" d="M299.58,307.2s-17.89,41.03-18.16,103.21c-.27,62.18,15.08,113.79,15.08,113.79,0,0,32.1-1.88,50.02-17.69,17.92-15.81,34.79-90.43,24.04-136.62-7.58-32.56-70.98-62.69-70.98-62.69Z"/>
            <path class="cls-5" d="M391.87,27.88c-49.02-28.31-76.25-7.81-76.25-7.81-15.46-3.17-77.15-4.03-77.15-4.03,0,0,42.13-12.76,76.36-12.31,34.26.49,59.85,7.02,77.04,24.15Z"/>
            <path class="cls-3" d="M212.43,70.2s-.34,16.97-27.86,39.99c-27.52,23.02-39.41,30.38-60.38,67.77-20.96,37.39-32.63,108.03-32.63,108.03,0,0,18.71-77.95,42.55-106.29,23.84-28.34,81.11-63.52,91.55-88.18,0,0-1.3-13.85-13.23-21.32Z"/>
            <path class="cls-1" d="M345.72,364.76s5.41,20.88,1.84,49.78c-3.57,28.9-6.88,60.64-3.24,84.98,0,0-.49-36.17,8.63-65.99,9.13-29.82,11.02-45.72,11.02-45.72,0,0-2.17-34.99-18.25-23.06Z"/>
            <path class="cls-56" d="M332.34,538.41s2.36,1.13,6.93-25.38c0,0,5.47,20.91,3.11,27.15-2.36,6.24-9.73,2.23-10.04-1.77Z"/>
            <path class="cls-66" d="M173.32,595.52h-.03s-14.16-3.34-14.16-3.34l-.29-.08s.58-3.96,1.55-8.96c1.7-8.45,4.59-19.91,8.14-20.77,5.64-1.4,4.8,33.16,4.8,33.16Z"/>
            <path class="cls-63" d="M203.08,593.15c-3.82,1.75-7.46,2.81-10.84,3.42-.15,0-.31.04-.47.07-1.15.19-2.27.33-3.35.44h-.03c-8.98.75-15.08-1.57-15.08-1.57,0,0,3.26-28.83,11.8-30.24,8.61-1.42,17.96,27.87,17.96,27.87Z"/>
            <path class="cls-67" d="M325.81,656.63c-.03.18-.05.29-.05.29,0,0-12.16-2.65-18.42-5.15,0,0,.04-.08.1-.22.46-1.07,2.48-5.47,5.19-10.02,3.26-5.42,7.53-10.94,11.51-11.03,7.32-.14,2.33,23.24,1.67,26.13Z"/>
            <path class="cls-62" d="M354.84,660.13s-16.06-.13-28.11-3.04c0,0,.05-.11.11-.28.95-2.83,9.01-25.37,17.72-25.86,8.72-.49,10.13,25.59,10.28,28.85,0,.21,0,.33,0,.33Z"/>
            <path class="cls-61" d="M383.76,656.38s-.99.49-2.85,1.07c-3.54,1.16-10.14,2.73-18.71,2.22h-.03c-.87-.07-1.76-.13-2.66-.23,0,0,1.54-14.63,8.97-18.11,7.43-3.48,15.28,15.04,15.28,15.04Z"/>
            <path class="cls-68" d="M627.28,662.47c-7.58-1.3-12.67-3.06-13.07-5.33.13-.71.64-2.97,1.59-6.04.57-1.94,1.3-4.21,2.18-6.68,2.2-2.58,4.58-4.43,6.87-4.47,5.91-.11,3.79,15.14,2.42,22.52Z"/>
            <path class="cls-64" d="M655.26,665.18c-9.61-.46-19.04-1.26-26.42-2.42,2.78-7.14,9.39-21.95,16.44-22.36,7.03-.4,9.3,16.55,9.98,24.79Z"/>
            <path class="cls-65" d="M684.39,665.62c-6.94.15-15.2.11-23.58-.2.93-4.54,3.26-12.23,8.37-14.63,6.98-3.26,14.34,12.87,15.2,14.83Z"/>
            <path class="cls-10" d="M292.47,559.69s30.62-2.63,37.73,6.64c5.2,6.78,5.18,15.07-1.06,20.02-6.24,4.94-22.5-1.57-25.8-4.81-3.3-3.23-.32-10.65,3.35-12.15,3.67-1.5,18.28.82,20.51,4.62,2.23,3.8-11.26,9.47-17.51,6.3,0,0,5.27,3.03,8.66,3.12,3.39.09,11.33-4.19,12.03-7.41.7-3.22-14.83-9.67-23.38-8.37-8.56,1.3-6.64,11.48-5.32,13.73,1.32,2.26,13.33,8.53,20.77,9.08,7.44.55,13.09-7.17,14.3-13.32s-4.08-14.41-9.04-16.54c-4.96-2.13-27.57-4.65-36.21-2.61l.98,1.71Z"/>
            <path class="cls-21" d="M168.29,475.16s9.67,6.18,8.16,16.55c-1.52,10.37-16.34,13.98-16.34,13.98l-.27-1.93s11.85-1.87,14.68-11.51c2.83-9.65-6.95-15.34-6.95-15.34l.72-1.74Z"/>
            <path class="cls-15" d="M164.77,483.62s5.21-1.15,4.5,7.7c-.7,8.85-9.11,8.9-9.11,8.9,0,0,5.59-2.17,7.28-7.53,1.68-5.36-2.67-9.07-2.67-9.07Z"/>
            <path class="cls-9" d="M424.1,355.98s1.44,18.08-5.87,33.34c-7.31,15.26.21,23.15.21,23.15,0,0,14.45-29.12,5.65-56.49Z"/>
            <path class="cls-19" d="M279.82,348.23c-2.29,11.32-4.04,23.31-4.91,35.66-.07.9-.1,1.8-.17,2.7-.67,11.03-.62,22.3.4,33.69.03.67.09,1.38.15,2.06,2.41,25.02,5.11,45.15,7.58,60.54.07.47.17.94.24,1.4,3.98,24.72,7.23,36.73,7.23,36.73v.03s-.09.65-.09.65l-11.88-25.08c-3.63,4.6-9.16,10.38-14.84,16.01,0,0-.03.02-.11.1-11,10.9-22.64,21.09-22.64,21.09l-.06,14.62s12.34,10.26,8.58,17.17c-2.78,5.14-27.65,20.3-46.22,27.55-3.82,1.75-7.46,2.81-10.84,3.42-.15,0-.31.04-.47.07-1.22.24-2.34.38-3.35.44h-.03c-8.98.75-15.08-1.57-15.08-1.57h-.03c-7.29-1.29-12.87-2.94-14.16-3.34l-.29-.08s.58-3.96,1.55-8.96c3.3-23.95,3.51-62.83,3.51-62.83l-4.32-9.85c-.02-2.28.1-4.47.28-6.62v-.08s0,0,0,0c.1-1.19.2-2.38.36-3.53,1.2-8.9,3.91-16.36,6.39-21.71.04-.08.08-.14.1-.22,2.5-5.92,4.65-8.51,5.1-9.01.04-.05.07-.08.07-.08,0,0,11.81-5.52,27.25-20.43,2.8-2.69,5.73-5.72,8.71-9.07,19.49-21.8,28.59-49.09,28.59-49.09l.04.1c-.16-.97-.3-1.93-.42-2.92-.32-2.3-.62-4.56-.86-6.84-.24-2.07-.46-4.11-.65-6.14-.24-2.43-.45-4.86-.63-7.26-.18-2.39-.37-4.76-.5-7.11-.16-2.36-.3-4.69-.41-6.98-.11-2.29-.23-4.55-.32-6.78-.04-.61-.06-1.22-.1-1.83-.02-.55-.05-1.07-.05-1.58-.11-3.17-.2-6.24-.31-9.23,0-.36.01-.57,0-.67v-.03c-.04-2.31-.11-4.53-.17-6.72-.66-24.83.27-55.04-.17-74.93-.06-3.28-.16-6.3-.3-8.96h-.03c-.29-5.39-.85-9.3-1.7-11.15-3.73-8.05-20.2-13.27-21.06-13.55,0,0,80.49,12.62,117.01-34.68-.52,1.21-9.37,20.88-35.74,35.32,1.63-.47,53.32-16.12,79.1-50.92l-23.06,49.67s-27.35,32.92-39.11,53.24c-.05.11-.13.22-.18.33-7.24,12.57-19.69,41.33-26.91,76.88l-.07.38Z"/>
            <path class="cls-16" d="M649.6,458.12h-.02c-8.53,3.13-26.73,21.48-101.44,27.06-74.78,5.57-124.67-32.94-124.67-32.94,12.18-42.75,12.85-73.04,13.37-76-4.56,27.56-17.08,46.29-25.56,52.6-1.98-18.99-10.99-42.92-19.5-59.69-.09-.18-.2-.33-.26-.44-.02-.07-.04-.11-.07-.13t-.02-.07s-.02-.04-.04-.07l-.02-.04c.31,1.63,6.04,31.33-4.3,73.31-9.87,40.15-37.66,109.29-50.9,117.97-2.22,1.5-45.1-4.56-45.1-4.56.2,1.45.44,2.91.75,4.36.02.22.07.44.11.66.04.15.07.31.11.48.33,1.52.68,3.04,1.08,4.54.68,2.51,1.45,5.02,2.29,7.47.29.82.57,1.63.88,2.45.55,1.48,1.15,2.95,1.76,4.38.2.48.42.97.62,1.43,1.94,4.41,4.08,8.46,6.26,11.99.26.44.53.86.79,1.28.26.42.51.82.7,1.12.26.42.53.82.82,1.21l11.57,7.34.18,3.17c.02.31.04.66.07,1.06.04.57.07,1.21.11,1.96.02.24.04.51.04.77.02.4.04.84.07,1.28.04.46.07.93.09,1.43.04.53.07,1.08.09,1.67.04.53.09,1.08.11,1.65.02.35.02.75.02,1.12v.11c0,.57-.02,1.17-.09,1.76.02.09.02.18-.02.26-.02.44-.07.88-.13,1.32-.02.26-.07.53-.11.79-.37,2.56-1.08,5.24-2,7.98-.13.37-.26.77-.4,1.15-.02.07-.04.15-.09.22-2.38,6.76-5.88,13.68-8.79,19.15-.07.11-.13.2-.18.31-.07.13-.13.24-.2.35-.07.13-.13.24-.2.35,0,.02,0,.04-.02.07,6.26,2.49,18.42,5.16,18.42,5.16,0,0,.02-.13.04-.31l1.04.2c-.07.15-.11.26-.11.26,12.05,2.91,28.11,3.04,28.11,3.04,0,0-.02-.11,0-.33.68,0,1.34.02,1.98.02,11.81.11,17.08.09,32.87-4.43.31-.07.59-.15.9-.24.26-.09.55-.15.84-.24,1.3-.37,2.69-.79,4.14-1.23,3.92-1.17,6.87-3.26,8.97-5.35,1.63-1.61,2.75-3.19,3.46-4.32.62-.99.93-1.61.93-1.61,0,0-4.87-15.18-9.12-32.46l-.2-.99c-1.04-4.12-2-8.35-2.84-12.49l-.18-.86c-.75-3.79-1.43-7.49-1.96-10.99-.2-1.48-.44-3.04-.59-4.63v-.02c-.44-3.68-.79-7.56-1.06-11.52.02-.02,0-.07,0-.09-.13-1.94-.24-3.9-.35-5.86-.04-1.04-.11-2.09-.15-3.13-.09-1.94-.15-3.86-.22-5.75-.53-16.55-.15-30.76-.15-30.76,0,.02.02.02.04.04.02.04.04.07.09.11-.02.02,0,.02.02.04,2.03,2.82,5.18,5.57,8.22,7.82.84.62,1.65,1.19,2.42,1.72,0,.07-.02.11-.02.18,16.06,12.25,44.38,23.31,85.76,26.4,4.34.33,8.84.57,13.48.71.48.02.99.02,1.48.04,2.82.07,5.68.11,8.62.11,4.58,0,9.3-.09,14.15-.29,1.32.02,2.67.04,4.08.04.97,0,1.98-.04,3.04-.09.77,0,1.56-.07,2.36-.11h.15c.82-.07,1.67-.11,2.49-.18.42-.04.77-.09,1.17-.11.18-.02.4-.04.62-.07h.02c6.72-.64,13.84-1.98,20.73-4.38.42-.15.9-.31,1.34-.48.73-.29,1.43-.57,2.16-.88.66-.29,1.34-.62,2-.97.38-.15.68-.31,1.01-.46.59-.31,1.17-.59,1.74-.9.04-.02.09-.04.15-.07,3.94-1.89,45.54-16.92,48.36-17.96.11-.02.15-.04.15-.04.04-.07.07-.11.11-.18,1.43-2.2,16.66-26.09,33.71-61.25-.59-6.43-1.28-11.3-2.18-13.51Z"/>
            <path class="cls-17" d="M702.37,651.71c.57,4.03.86,7.95.42,10.91-.02.29-.09.57-.13.84.4,1.17-7.27,1.92-18.24,2.16h-.02c-6.94.15-15.2.11-23.58-.2-1.85-.07-3.7-.13-5.55-.24-9.61-.46-19.04-1.26-26.42-2.42-.53-.09-1.06-.18-1.56-.29-4.01-.68-7.34-1.5-9.63-2.47-2.03-.84-3.26-1.78-3.44-2.86.13-.71.64-2.97,1.59-6.04.57-1.94,1.3-4.21,2.18-6.68,2.53-7.09,6.46-15.8,12.05-22.63,0,0-.15-.48-.44-1.39.04-.02.07-.07.09-.09,0,0-.66-2.34-1.61-6.08-.11.02-.22.07-.31.09-.04,0-.11.02-.15.02-2.03-5.86-4.12-13.33-5.82-21.15-1.83-8.31-3.19-16.97-3.66-24.48-.09-1.37-.13-2.71-.15-3.99,0,0,.51-.02,1.45-.04,6.39-.31,32.37-2.01,47.66-10.75,20.16-11.52,52.9-46.76,78.57-80.25.2.11.4.22.59.31-11.44,51.96-48.52,157.83-48.52,157.83,0,0,0,.02.02.07.02.09.07.29.15.55,0,.04.02.09.04.13.64,2.45,2.73,10.49,4.36,18.88.02.07.04.15.04.26Z"/>
            <path class="cls-71" d="M627.48,238.69c-39.64-6.32-83.91-12.63-114.73-12.85-68.64-.51-68.92-21.57-68.92-21.57,4.54-22.58,4.43-40.9,3.42-52.95,8.55,15.09,17.63,28.4,25.76,34.7,11.13,8.59,27.32,14.67,46.29,21.35,0,1.1,64.43,9.67,88.64,21.17,6.59,3.11,13.13,6.52,19.54,10.14Z"/>
            <path class="cls-36" d="M402.31,202.35s12.44,52.35,7.49,73.47l-22.77-32.5,15.28-40.97Z"/>
            <path class="cls-74" d="M363.95,115.85s-2.64,56.07-16.98,96.45c0,0,20.51,72.25,22.84,109.01,0,0,14.48-45.32,15.12-85.94.64-40.62-20.98-119.52-20.98-119.52Z"/>
            <path class="cls-60" d="M472.99,186c-16.34,29.38-78.86,35.61-79.25,49.17-.36,13.57,18.55,20.92,16.42,38.72-2.13,17.8-40.35,47.41-40.35,47.41,0,0,11.59-38.85,4.43-107.1-7.19-68.28-10.29-98.36-10.29-98.36l.72-3.42c.26-13.37,2.39-25.65,4.49-34.64,0,0,.03,0,0-.03,2.15-9.31,4.27-15.12,4.27-15.12,2.42,2.76,7.55,6.17,14.34,10.06,19.97,11.45,54.15,27.18,75.17,43.9,6.35,5.02,10.34,11.3,12.73,18.02,1.09,3.1,1.86,6.29,2.36,9.5,3.14,20.69-5.04,41.88-5.04,41.88Z"/>
            <path class="cls-55" d="M475.87,169.61c-1.12-53.45-73.71-52.5-93.13-64.08-15.36-9.16-12.83-24.1-13.58-27.74,0,0,.03,0,0-.03,2.15-9.31,4.27-15.12,4.27-15.12,2.42,2.76,7.55,6.17,14.34,10.06,4.09,3.96,8.65,7.79,12.85,10.1,11.3,6.2,67.14,42.34,75.05,51.82.3.39.54.7.7,1,1.03,1.88,1.52,4.96,1.65,8.5.43,10.62-2.15,25.48-2.15,25.48Z"/>
            <path class="cls-25" d="M387.45,127.56s6.25,65.05,2.23,108.65c0,0-1.68,6.61,15.53,29.28,0,0,6.11,13.91-10.25,27.69,0,0,6.5-26.11-10.62-54.49l3.11-111.13Z"/>
            <path class="cls-40" d="M396.51,55.96s-7.29-7.34-16.65-2.93c-9.36,4.41-6.33,13.02-4.48,25.46,1.85,12.44,37.3,23.22,68.24,36.74,30.94,13.52,38.63,49.15,29.36,70.76,0,0,14.12-25.25,3.39-50.36-10.73-25.11-47.65-44.73-62.52-54.91-14.86-10.19-17.35-24.76-17.35-24.76Z"/>
            <path class="cls-7" d="M390.56,223.19l-.89-108.28s53.15,40.56,63.52,75.69c0,0-10.48,13.33-31.85,19.9-21.37,6.57-30.77,12.69-30.77,12.69Z"/>
            <path class="cls-2" d="M378.69,59.01c-4.76,4.26-.9,19.6,9.73,28.62,10.63,9.03,40.59,16.36,59.91,25.27,19.32,8.91,29.7,31.22,29.7,31.22,0,0-8.43-24.08-29.04-36.03-20.61-11.95-42.58-19.42-50.29-27.21-7.71-7.79-10.67-20.62-12.14-22.77-1.46-2.15-5.39-1.33-7.86.89Z"/>
            <path class="cls-14" d="M656.47,446.86c10.22-21.53,18.95-31.22,19.48-31.82-7.6,20.67-16.08,39.9-24.17,56.58-17.05,35.17-32.28,59.05-33.71,61.25,14.94-24.72,24.88-50.94,31.51-74.76,12.91-46.27,13.29-83.6,13.29-83.6,7.1-10.71,21.62-18.66,21.62-18.66l-13.2,16.64c-12.93,63.24-14.81,74.36-14.81,74.36Z"/>
            <path class="cls-18" d="M637.5,619.18c-4.66,1.85-7.46,2.63-7.46,2.63,0,0,2.71-1.52,7.46-2.63Z"/>
            <path class="cls-12" d="M749.44,454.79c-2.65,36.97-51.7,177.04-51.7,177.04,0,0,6.87,22.12,4.93,31.65-4.07-12.76-14.29-25.43-28.14-38.06-15.81-8.93-29.2-8.11-37.04-6.23,12.82-5.07,39.62-17.97,60.14-43.97,27.54-34.84,51.08-118.32,51.81-120.42Z"/>
            <path class="cls-72" d="M658.33,563.62s6.2,25.89,1.85,40.46c0,0-20.9,9.72-31.82,12.24-.15.03-.26.07-.38.08,0,0-6.94-18.13-9.78-36.66-.43-2.71-.78-5.45-.97-8.12,0,0,22.9-11.61,40.28-8.17.28.05.55.11.83.16Z"/>
            <path class="cls-11" d="M649.59,433.71s13.08-36.76,13.28-59.19c0,0,6.12-11.13,21.61-18.65l-13.2,16.63s-7.68,37.3-21.68,61.21Z"/>
            <path class="cls-69" d="M617.8,533.11c-2.82,1.04-44.42,16.06-48.36,17.96-.07.02-.11.04-.15.07-.57.31-1.15.59-1.74.9-.33.15-.64.31-1.01.46-.66.35-1.34.68-2,.97-.73.31-1.43.6-2.16.88-.44.18-.93.33-1.34.48-6.9,2.4-14.01,3.75-20.73,4.38h-.02c-.22.02-.44.04-.62.07-.4.02-.75.07-1.17.11-.81.07-1.67.11-2.49.18h-.15c-.79.04-1.59.11-2.36.11-1.06.04-2.07.09-3.04.09-1.41,0-2.75-.02-4.08-.04-4.85.2-9.56.29-14.15.29-64.45,0-103.05-17.98-118.1-35.34-.75-.66-1.32-1.17-1.67-1.45-.04-.09-.09-.13-.18-.18l-.02-.04c-.04-.07-.07-.07-.09-.11l-.04-.07s-.02.68-.04,1.92l-1.96-49.11.02-.02,9.01-11.44h.02c.18.37,7.43,5.33,8.62,15.64,6.43,56.12,176.4,85.8,233.32-22.17,0-.02.02-.02.02-.02,4.89-7.51,8.02-13.22,9.21-15.53-4.01,8.57-32.52,91.02-32.52,91.02Z"/>
            <path class="cls-6" d="M694.32,438.59s5.91,39.8-17.22,71.84c-23.14,32.01-56.97,52.11-56.97,52.11l-2.17-29.47,19.54-33.56c.07-.06,4.03-7.56,4.03-7.56,0,0-.66-2.33,12.7-14.56,21.5-19.66,40.09-38.78,40.09-38.78Z"/>
            <path class="cls-8" d="M663.09,557.96c5.65,4.33,18.84-12.66,21.99-25.99,0,0-6.88,12.61-15.33,15.57-8.45,2.96-6.66,10.42-6.66,10.42Z"/>
            <path class="cls-13" d="M618.18,579.76s20.35-10.19,27.18-10.4c6.84-.21,11.37,11.62,12.22,16.62.85,5-8.24,16.73-12.99,19.61-4.75,2.88-10.03.48-14.78-4.41-4.75-4.88-4.56-14.54-1.97-17.66,2.59-3.12,15.06-5.3,19.54-1.92,4.48,3.37,3.67,10.97-2.21,13.7-5.87,2.73-10.94,2.01-12.61-.28s3.96-7.04,9.37-8.21c0,0-3.08-.39-8.24,3.15-5.17,3.54-3.57,6.66-2.53,7.99,1.04,1.33,12.9.75,15.87-.6,2.97-1.35,5.27-8.12,4.78-12.02s-6.5-8.91-10.95-8.54c-4.45.37-13.56,3.43-15.06,5.76-1.5,2.33-2.55,15.3,1.02,19.78,3.57,4.47,11.05,7.6,18.16,5.58,7.11-2.02,13.95-13.62,14.54-20.94.59-7.31-5.64-17.59-10.92-19.92-5.28-2.33-30.71,7.9-30.71,7.9l.28,4.8Z"/>
          </g>
          <path class="cls-77" d="M33.42,459.5c2.76,1.77,4.94,2.6,6.06,2.06,1.8-.87,3.45-2.5,4.86-4.34,3.09-4.03,5.05-9.03,5.06-9.06.03-.02,3.08-1.94,7.74-5.4,11.38-8.42,32.45-26.01,43.23-47.66,5.73-11.52,10.12-27.6,14.77-45.15,7.69-29.03,16.06-62.08,32.39-85.15,22.52-31.86,51.93-48.5,59.71-52.55.11-.07.24-.13.35-.18.24-.13.45-.23.64-.33.22-.1.41-.19.55-.27-.03.01-.08.04-.12.05.03-.02.09-.04.12-.06.18-.09.31-.15.35-.18l.04-.02-.07,1.2-.35,5.54s0,0,0,0h0s0,0,0,0c.02,0,.26.08.68.22.04.01.08.03.12.04.12.04.28.1.42.15.2.07.4.14.64.23.08.03.17.06.25.09.29.11.61.22.95.35.08.03.17.06.25.1.35.13.72.28,1.11.43.13.05.26.11.39.16.36.15.73.3,1.12.47.19.08.39.17.58.26.34.15.69.3,1.05.47.26.12.53.25.79.38.31.14.61.29.92.44.33.17.67.34,1,.52.25.13.5.26.76.4.39.21.79.44,1.18.67.2.11.4.22.59.34.44.26.87.54,1.3.82.15.09.3.18.44.28.47.32.93.65,1.38.99.09.07.19.13.28.2.49.37.95.76,1.39,1.16.04.04.09.07.13.11,1.46,1.32,2.65,2.76,3.37,4.3.14.3.27.67.39,1.07.04.14.08.28.12.43.09.35.18.72.26,1.13.04.21.08.43.13.66.07.41.14.84.21,1.29.04.27.07.54.11.82.04.35.08.72.12,1.09.14,1.39.26,2.93.34,4.65h.03c.09,1.57.17,3.25.23,5.05,0,.26.02.52.02.78.03.96.05,1.94.07,2.96,0,.05,0,.1,0,.16.02,1.03.04,2.11.06,3.2.29,19.83-.51,48.19.12,71.73.07,2.19.13,4.41.18,6.72v.03c0,.09,0,.3,0,.67.09,2.34.16,4.75.25,7.2.02.68.04,1.35.06,2.04,0,.48.02,1.04.04,1.56.02.32.05.6.07.91.01.31.03.62.05.94.09,2.23.21,4.49.32,6.78,0,.1.01.21.02.31.09,1.8.19,3.63.32,5.47.03.4.04.79.07,1.2.02.43.06.87.09,1.3.11,1.93.26,3.87.41,5.8.2,2.4.4,4.85.64,7.29.01.14.03.3.05.44.18,1.88.37,3.77.6,5.68.04.42.11.85.16,1.27.2,1.86.44,3.7.69,5.59.13.98.26,1.92.41,2.88l-.03-.07s-9.1,27.29-28.59,49.09c-2.98,3.35-5.91,6.38-8.71,9.07-15.43,14.91-27.25,20.43-27.25,20.43,0,0-.03.02-.07.08-.45.5-2.6,3.09-5.1,9.01-.02.09-.06.14-.1.22-2.48,5.34-5.18,12.79-6.39,21.69-.05.02-.07.03-.07.03,0,0,.04,0,.07,0-.16,1.15-.26,2.34-.36,3.53,0,0-.02,0-.02,0h0s-.01,0-.01,0l.02.15c-.18,2.13-.3,4.29-.28,6.55l4.32,9.85s-.21,38.88-3.51,62.83c-.97,5.01-1.55,8.96-1.55,8.96l.29.08c1.29.41,6.88,2.06,14.16,3.34h.03s6.1,2.32,15.08,1.57h.03c1.01-.06,2.13-.2,3.35-.44.16-.03.31-.07.47-.07,3.38-.62,7.02-1.67,10.84-3.42,18.57-7.24,43.43-22.4,46.21-27.55,3.76-6.91-8.58-17.17-8.58-17.17l.06-14.62s11.63-10.19,22.64-21.09c.07-.08.11-.1.11-.1,5.68-5.63,11.21-11.41,14.84-16.01l11.88,25.08.98,2.09s0,.01,0,.02v.02c1.67,5.42,2.49,9.28,2.56,11.24.31,6.87-2.73,19.96-2.73,19.96,0,0-.02.04,0,.09,0,0,0,0,0,0h0c.13.96.27,1.92.44,2.86,0,0,0,0,0,0h0c1.35,7.99,3.92,15.42,6.59,21.59.19.45.39.9.57,1.32,1.94,4.41,4.08,8.46,6.26,11.99.26.44.53.86.79,1.28.26.42.51.82.7,1.12.07.12.15.23.23.34.36.55.57.86.57.86h0s0,0,0,.01l11.57,7.34.18,3.17c.02.31.04.66.07,1.06.04.57.07,1.21.11,1.96.02.24.04.51.04.77.02.42.04.84.07,1.28.04.46.07.93.09,1.43.04.53.07,1.08.09,1.67.02.53.07,1.06.09,1.63.02.37.04.75.04,1.15v.11c0,.57-.02,1.17-.09,1.76.02.09.02.18-.02.26-.02.44-.07.88-.13,1.32-.02.26-.07.53-.11.79-.37,2.56-1.08,5.24-2,7.98-.13.37-.26.77-.4,1.15-.02.07-.04.15-.09.22-1.24,3.53-2.79,7.1-4.4,10.49-2.55,4.36-4.44,8.47-4.89,9.51,0,0,0,0,0,.01-.02.07-.04.11-.07.15,0,0,0,.01,0,.02-.01.02-.02.04-.02.04,0,0,0,0,0,0,0,0,0,0,0,0,6.26,2.49,18.42,5.16,18.42,5.16,0,0,.02-.13.04-.31l1.02.2c-.06.16-.11.27-.11.27,12.06,2.91,28.11,3.04,28.11,3.04h0s0,0,0,0c0,0-.02-.11,0-.33.68,0,1.34.02,1.98.02,3.9.04,7.09.05,10.18-.1,3.66-.1,6.84-.54,9.41-1.09,3.65-.67,7.83-1.68,13.29-3.24.31-.07.59-.15.9-.24.26-.09.55-.15.84-.24,1.3-.37,2.69-.79,4.14-1.23,3.92-1.17,6.87-3.26,8.97-5.35,1.63-1.61,2.75-3.19,3.46-4.32.62-.99.93-1.61.93-1.61,0,0-4.87-15.18-9.12-32.46l-.2-.99c-1.04-4.12-2-8.35-2.84-12.49l-.18-.86c-.75-3.79-1.43-7.49-1.96-10.99-.2-1.48-.44-3.04-.59-4.63v-.02c-.44-3.68-.79-7.56-1.06-11.52.02-.02,0-.07,0-.09-.13-1.94-.26-3.9-.35-5.86-.04-1.04-.11-2.09-.15-3.13-.09-1.94-.18-3.86-.22-5.75-.53-16.55-.15-30.76-.15-30.76l.05.07s.05.05.09.1c0,.01,0,.02.02.04.08.11.18.21.26.32.35.46.72.92,1.12,1.37.21.24.41.48.64.71.49.52,1,1.04,1.54,1.55.16.15.33.3.5.46.59.54,1.2,1.08,1.84,1.6.02.02.04.03.06.05.73.6,1.49,1.18,2.26,1.76,0,0,0,0,0,0,.08.06.17.13.24.19,1.59,1.32,3.34,2.62,5.21,3.91.08.05.16.11.24.16,2.13,1.45,4.43,2.89,6.92,4.28.12.06.24.13.35.19,1.13.63,2.3,1.25,3.51,1.86.15.08.3.15.45.23,1.33.67,2.69,1.33,4.11,1.97.06.03.13.06.19.08,1.32.6,2.68,1.18,4.07,1.76.24.1.49.2.74.3,2.96,1.2,6.09,2.36,9.39,3.45.28.09.56.18.84.27,1.6.52,3.24,1.03,4.92,1.52.05.01.1.03.15.04,1.79.52,3.63,1.02,5.5,1.5.23.06.47.12.71.18,1.71.43,3.45.85,5.24,1.25.2.05.4.09.61.14,2,.44,4.05.87,6.14,1.27.05.01.11.02.16.03,2,.38,4.04.73,6.12,1.07.27.04.53.09.8.13,4.35.69,8.87,1.28,13.59,1.77.26.03.52.05.77.08,4.38.44,8.91.8,13.61,1.05.4.02.81.03,1.22.05,1.76.09,3.54.16,5.34.22.17,0,.33.02.5.02.48.02.99.02,1.48.04.29,0,.59,0,.88.01,2.54.06,5.11.1,7.73.1,4.58,0,9.3-.09,14.15-.29,1.32.02,2.67.04,4.08.04.97,0,1.98-.04,3.04-.09.77,0,1.56-.07,2.36-.11h.15c.81-.07,1.67-.11,2.49-.18.42-.04.77-.09,1.17-.11.18-.02.4-.04.62-.07h.02c1.62-.15,3.27-.35,4.92-.59-.49.6-1.03,1.34-1.61,2.3,0,0,0,0,0,.01,0,.01-.01.02-.02.03-.01.02-.02.04-.04.06,0,0,0,.02-.02.03,0,0-.01.02-.02.03-.06.08-.11.18-.17.26-.17.26-.34.52-.52.81-.04.06-.08.14-.12.2-.19.32-.39.65-.58,1-.04.07-.08.16-.12.23-.19.35-.38.71-.56,1.08-.05.09-.09.2-.13.29-.18.37-.35.75-.52,1.14-.06.14-.12.3-.18.45-.15.36-.3.73-.44,1.11-.08.21-.15.45-.22.67-.12.34-.23.67-.34,1.02-.11.35-.2.72-.3,1.09-.09.32-.17.65-.25.98-.13.55-.25,1.1-.36,1.68-.01,0-.05,0-.05,0,0,0,0,0,0,0h0s0,0,.01,0c0,0,.02,0,.04.02-.13.7-.22,1.42-.33,2.15h0s-.01,0-.01,0h0s0,0,0,0v.1c-.08.65-.15,1.32-.2,2.01-.05.69-.09,1.39-.11,2.12l2.82,7.56s-19.04,31.44-22.34,47.13c0,.03-.01.05-.02.08-.03.1-.06.2-.09.31-.07.23-.13.47-.19.69-.05.18-.1.36-.15.53-.04.16-.09.33-.13.49-.04.16-.08.31-.12.47-.04.17-.08.32-.12.48-.03.13-.07.26-.1.39-.04.16-.08.31-.11.45-.03.11-.05.21-.08.31-.04.15-.07.29-.1.42-.02.07-.04.15-.05.22-.04.18-.08.34-.11.47-.01.05-.02.07-.03.11-.01.06-.03.12-.04.17-.02.06-.04.13-.05.19h.01s0,.01,0,.01l.24.15h.02s0,0,0,0c.11.06.26.11.44.15.15.03.33.06.51.09,0,0,0,0,0,0l10.7,2.69s.03.01.04.02h.03s.02.01.02.01c0,0,0,0,.01,0,.49.26.98.47,1.48.66.15.06.31.11.47.16.35.12.71.24,1.06.34.19.05.37.1.56.15.34.09.68.17,1.02.25.23.05.47.11.7.16.41.09.82.18,1.24.26.04.01.08.02.12.04.5.15,1.06.33,1.61.5.35.11.69.21,1.06.33.33.1.71.22,1.06.33.56.17,1.1.34,1.7.52h.02s0,.01,0,.01c.8.25,1.7.51,2.68.72.01,0,.03,0,.04,0,.03,0,.05.01.07.02.03,0,.06.02.08.02.11.02.21.04.32.09.1.02.26.05.37.08.3.07.59.13.96.22.31.07.64.14.99.22.23.05.44.1.68.15.37.08.76.17,1.16.25.23.05.44.1.68.15.44.09.88.18,1.33.27.21.04.41.08.62.12.46.09.92.18,1.38.26.2.04.39.07.59.11.46.08.9.15,1.34.22.18.03.37.06.54.09.44.06.85.11,1.25.15.14.02.3.04.43.05.51.05.97.07,1.37.07,0,0,0,0,0,0h0s0,0,0,0c0,0,0,0,0,0,2.27.12,4.83.26,7.55.41,1.36.07,2.75.15,4.17.22,0,0,.02,0,.03,0,.08,0,.17,0,.25.01,1.14.06,2.3.12,3.46.18,14.37.7,29.88,1.14,31.69-.81,0,0,0,0,0,0h0s0,0,0,0c0,0,0,0,0,0,0,0,0,0,0,0,0,0,0,0,0,0,.21-.23.37-.52.49-.86.04-.12.05-.27.09-.4.06-.25.14-.48.17-.77.02-.15,0-.34.02-.51.02-.3.04-.6.03-.94,0-.17-.03-.36-.04-.53-.02-.37-.04-.73-.09-1.13-.02-.16-.05-.33-.07-.49-.06-.44-.12-.87-.2-1.33-.02-.14-.06-.28-.09-.42-.1-.5-.2-1-.31-1.51-.03-.14-.07-.29-.11-.43-.12-.52-.25-1.04-.39-1.56-.02-.06-.03-.12-.05-.18-.16-.61-.33-1.22-.51-1.83,0-.03-.02-.05-.02-.08-.19-.64-.38-1.27-.58-1.88-.02-.08-.05-.15-.07-.23-.18-.56-.36-1.11-.54-1.64-.02-.05-.03-.09-.05-.14-.59-1.74-1.15-3.27-1.57-4.37-.03-.08-.05-.13-.08-.21-.11-.28-.21-.55-.29-.76-.09-.23-.16-.4-.21-.54,0-.02-.02-.06-.03-.08-.06-.15-.09-.22-.09-.23l.38-10.2s7.2-35.16,8.67-53.43c.01-.18.03-.35.04-.53.05-.66.09-1.29.12-1.9,0,0,0-.01,0-.02,0,0,0,0,0-.01.01-.21.03-.42.04-.62.03-.67.05-1.29.06-1.89,0-.32,0-.62,0-.92,0-.29,0-.58-.02-.85-.01-.29-.02-.58-.04-.84h0s0,0,0,0c-.02-.27-.05-.51-.08-.75-.02-.17-.03-.39-.06-.54-.02-.07-.02-.09-.02-.09-.02-.13-.02-.26-.02-.42.16-2.36,3.93-8.4,8.73-15.46l1.76,23.96-.15.48-.53,1.7c-.95.02-1.45.04-1.45.04.02,1.28.07,2.62.15,3.99l-.9,2.91s0,0,0,0c0,0,0,0,0,0,.19,2.63.53,5.32.95,7.98v.16s.02,0,.02,0c2.84,18.52,9.78,36.65,9.78,36.65.12-.01.23-.06.38-.08,0,0,.02,0,.03,0,.51,1.74.92,3.14,1.21,4.09.29.9.44,1.39.44,1.39-5.6,6.83-9.52,15.53-12.05,22.63-.88,2.47-1.61,4.74-2.18,6.68-.95,3.06-1.45,5.33-1.59,6.04.05.28.17.56.36.82,0,.01.03.02.03.04.18.25.43.49.73.73.06.05.14.09.2.13.27.19.56.38.9.57.17.09.38.18.57.27.21.1.4.2.63.3.06.02.13.05.19.07.32.13.68.25,1.04.38.31.11.6.22.93.32.26.08.54.15.82.23.47.13.93.27,1.44.4.14.03.29.07.44.1,1.45.35,3.04.67,4.78.97.51.11,1.04.2,1.56.29,7.38,1.17,16.81,1.96,26.42,2.42,1.85.11,3.7.18,5.55.24,8.37.31,16.64.35,23.58.2h.02c10.97-.24,18.64-.99,18.24-2.16,0,0,0-.02,0-.02,0,.01,0,.03.01.04.6-2.94.36-7.07-.26-11.39-.02-.12-.03-.25-.05-.37,0-.11-.02-.2-.04-.26-.7-4.68-1.82-9.49-2.78-13.19,0-.01,0-.02,0-.03-.07-.27-.14-.54-.21-.79-.89-3.36-1.58-5.61-1.58-5.61,0,0,14.38-41.06,27.99-84.59.07-.21.13-.42.2-.63.21-.67.42-1.33.62-2,.19-.61.38-1.21.56-1.82.14-.45.28-.91.42-1.36.27-.88.54-1.76.81-2.64.07-.24.15-.47.22-.71,7.2-23.41,13.87-46.76,17.69-64.1,1.72-7.8,2.84-14.39,3.19-19.21l.02-.02c.55-7.84.44-17.78-.37-28.89-2.35-31.82-10.65-73.4-26.5-103.71,0,0,.04.04.04.04,0,0,23.49-14.8,39.98-43.24,1.83-3.16,3.59-6.48,5.19-9.97,16.17-34.93,18.39-85.38,18.39-85.38,18.14-27.7,30.3-67.87,30.3-67.87-23.42,11.74-35,32.21-35,32.21-.55-4.45.49-10.82.49-10.82-9.9,16.37-4.18,43.31-4.18,43.31,0,0-2.56,60.06-25.58,89.63-.64.82-1.29,1.64-1.95,2.41-22.33,27.1-43.76,26.27-43.76,26.27,0,0,0,0,0,0,0,0,0,0,0,0-17.43-18.55-46.73-41.91-79.04-60.04-6.41-3.61-12.96-7.03-19.54-10.14-24.22-11.5-88.64-20.07-88.64-21.17-18.97-6.68-35.17-12.76-46.29-21.35,0,0,0,0-.01-.01,0,0,0,0,0-.01,0,0,0-.02.02-.04.33-.59,13.32-24.36,4.08-48.57-.15-.48-.33-.89-.51-1.29-.07-.16-.12-.31-.19-.47-.49-1.14-1.05-2.27-1.64-3.4-2.45-5.81-6.2-11.2-11.8-15.63,0,0-.01,0-.02-.01-15.59-15.96-38.2-28.44-49.06-35.88,0,0,0-.02,0-.02,0,0-4.85-35.67-21.97-52.82-17.19-17.16-42.77-23.66-77.05-24.17-34.23-.44-76.34,12.31-76.37,12.32-.08-.01-4.97-.94-10.17,2.38-2.07,1.24-3.7,2.88-4.97,4.71-6.11,8.19-4.72,17.42-4.64,17.91,0,.02,0,.05,0,.05l-10.14,10.31c-11.21,1.1-23.25,4.14-35.61,8.86l-.84.31c-38.34,14.87-79.02,45.89-104.1,85.56,0,0-.02,0-.02,0l-.42.7c-.39.63-.79,1.25-1.17,1.89-.74,1.21-1.45,2.43-2.16,3.65l-.26.43s0,0,0,0c-2.79,4.87-5.36,9.85-7.64,14.94-.73,1.63-1.43,3.29-2.1,4.98-.09.23-.18.45-.27.68-.63,1.6-1.23,3.22-1.81,4.86-.11.31-.22.61-.32.92-.57,1.63-1.11,3.28-1.63,4.94-.09.29-.18.58-.27.87-.53,1.72-1.04,3.46-1.51,5.22-.04.14-.07.28-.11.42-.48,1.77-.93,3.56-1.37,5.36-.04.15-.07.3-.11.45-.28,1.18-.55,2.36-.81,3.54h0s0,0,0,0c-.14.65-.28,1.3-.41,1.95-.06.27-.11.53-.17.8-.38,1.82-.73,3.66-1.06,5.5-.05.25-.09.5-.13.76-.34,1.9-.66,3.81-.95,5.73-.02.1-.03.21-.05.32-.63,4.09-1.16,8.21-1.61,12.35,0,.04,0,.08-.01.11-.23,2.08-.43,4.16-.61,6.24,0,.04,0,.09-.01.13-.24,2.76-.45,5.52-.63,8.27h0v.1c-.23,3.56-.4,7.1-.53,10.62v.02s0,0,0,0c-.08,2.34-.14,4.67-.19,6.99h0v.04c-.03,1.68-.05,3.36-.06,5.02v.24s0,0,0,0c-.2,32.46,3.2,61.27,5.15,74.95.02.11.03.24.05.36,0,0,0,0,0,0,.37,2.57.68,4.58.9,5.95.01.07.02.13.03.2.06.38.12.72.17.99.2,1.19.34,2.56.42,4.06.12,2.3.1,4.92-.08,7.75-.04.63-.09,1.27-.15,1.92-1.16,11.91-5.34,26.71-14.25,36.05-7.46,7.82-15.66,8.52-21.62,10.36-4.42,1.36-7.61,3.35-8.35,9.35,0,0,0,0,0,.01-.02.02-.45.63.07,2.78.84,5.76,5.64,13.5,11.58,20.76,7.92,11.25,15.11,16.47,19.9,18.87ZM473.08,185.77c.32-.85,1.44-4.02,2.61-8.63-.6,3.04-1.48,5.94-2.61,8.63ZM528.99,643.06h0s0,0,0,0h0Z"/>
        </g>
      </g>
    </g>
  </g>
</svg>